<svg width="35" height="35" viewBox="0 0 35 35" fill="none" xmlns="http://www.w3.org/2000/svg">
<path d="M29.1668 29.1667H5.83342C5.05987 29.1667 4.318 28.8594 3.77102 28.3124C3.22404 27.7654 2.91675 27.0235 2.91675 26.25V8.62312C2.94946 7.87177 3.27114 7.1621 3.81461 6.64227C4.35809 6.12243 5.08136 5.83262 5.83342 5.83333H29.1668C29.9403 5.83333 30.6822 6.14062 31.2291 6.6876C31.7761 7.23458 32.0834 7.97645 32.0834 8.75V26.25C32.0834 27.0235 31.7761 27.7654 31.2291 28.3124C30.6822 28.8594 29.9403 29.1667 29.1668 29.1667ZM5.83342 11.4742V26.25H29.1668V11.4742L17.5001 19.25L5.83342 11.4742ZM7.00008 8.75L17.5001 15.75L28.0001 8.75H7.00008Z" fill="#A19C9C"/>
</svg>
