<svg width="37" height="37" viewBox="0 0 37 37" fill="none" xmlns="http://www.w3.org/2000/svg">
<path d="M18.4998 18.5C24.0324 18.5 28.5176 14.5825 28.5176 9.75C28.5176 4.91751 24.0324 1 18.4998 1C12.9671 1 8.48193 4.91751 8.48193 9.75C8.48193 14.5825 12.9671 18.5 18.4998 18.5Z" stroke="#A19C9C" stroke-width="2"/>
<path d="M28.5178 22H29.2231C30.6878 22.0004 32.102 22.4679 33.2 23.3147C34.2979 24.1616 35.004 25.3295 35.1857 26.599L35.9691 32.066C36.0395 32.5585 35.9893 33.0585 35.8216 33.5327C35.6539 34.0069 35.3727 34.4446 34.9966 34.8166C34.6205 35.1887 34.1581 35.4866 33.64 35.6906C33.122 35.8947 32.5602 36.0001 31.992 36H5.008C4.43975 36.0001 3.87798 35.8947 3.35996 35.6906C2.84194 35.4866 2.37953 35.1887 2.00341 34.8166C1.62729 34.4446 1.34606 34.0069 1.1784 33.5327C1.01073 33.0585 0.960464 32.5585 1.03093 32.066L1.81232 26.599C1.99403 25.3289 2.70073 24.1605 3.79951 23.3136C4.8983 22.4667 6.31348 21.9995 7.77893 22H8.48218" stroke="#A19C9C" stroke-width="2" stroke-linecap="round" stroke-linejoin="round"/>
</svg>
