<svg width="1893" height="1080" viewBox="0 0 1893 1080" fill="none" xmlns="http://www.w3.org/2000/svg">
<g style="mix-blend-mode:darken" clip-path="url(#clip0_160_2)">
<path d="M1326.88 115.076H1496.98C1506.27 115.076 1515.17 118.719 1521.74 125.205C1528.31 131.691 1531.99 140.487 1531.99 149.66V475.364C1531.99 482.623 1529.08 489.585 1523.88 494.718C1518.68 499.851 1511.63 502.734 1504.29 502.734H1319.57C1312.22 502.734 1305.17 499.851 1299.98 494.718C1294.78 489.585 1291.86 482.623 1291.86 475.364V149.66C1291.86 145.118 1292.77 140.62 1294.53 136.424C1296.29 132.228 1298.87 128.415 1302.12 125.203C1305.37 121.992 1309.23 119.445 1313.48 117.707C1317.73 115.969 1322.28 115.075 1326.88 115.076Z" fill="#CEE4ED"/>
<path d="M1779.24 115.076H1609.84C1590.31 115.076 1574.47 130.715 1574.47 150.007V467.803C1574.47 487.095 1590.31 502.734 1609.84 502.734H1779.24C1798.77 502.734 1814.61 487.095 1814.61 467.803V150.007C1814.61 130.715 1798.77 115.076 1779.24 115.076Z" fill="#CEE4ED"/>
<path d="M1410.46 235.995L1462.3 167.068" stroke="white" stroke-width="7" stroke-linecap="round" stroke-linejoin="round"/>
<path d="M1290.42 395.618L1377.47 279.862" stroke="white" stroke-width="7" stroke-linecap="round" stroke-linejoin="round"/>
<path d="M1271.03 1064.81V149.179C1271.04 133.969 1277.16 119.384 1288.05 108.629C1298.94 97.8744 1313.7 91.8297 1329.1 91.8235H1777.37C1792.78 91.8235 1807.55 97.8687 1818.45 108.629C1829.34 119.39 1835.46 133.984 1835.46 149.202V1064.81" stroke="#592D29" stroke-width="5" stroke-linecap="round" stroke-linejoin="round"/>
<path d="M1553.23 91.8235V1063.81" stroke="#592D29" stroke-width="5" stroke-linecap="round" stroke-linejoin="round"/>
<path d="M1733.02 229.142L1785.17 159.798" stroke="white" stroke-width="7" stroke-linecap="round" stroke-linejoin="round"/>
<path d="M1684.44 335.551L1764.46 229.142" stroke="white" stroke-width="7" stroke-linecap="round" stroke-linejoin="round"/>
<path d="M1710.52 259.062L1721.01 245.12" stroke="white" stroke-width="7" stroke-linecap="round" stroke-linejoin="round"/>
<path d="M1604.8 399.648L1689.48 287.043" stroke="white" stroke-width="7" stroke-linecap="round" stroke-linejoin="round"/>
<path d="M744.313 115.076H78.9607C52.114 115.076 30.3504 136.574 30.3504 163.093V454.717C30.3504 481.236 52.114 502.734 78.9607 502.734H744.313C771.16 502.734 792.923 481.236 792.923 454.717V163.093C792.923 136.574 771.16 115.076 744.313 115.076Z" fill="#CEE4ED"/>
<path d="M631.091 252.982L693.586 169.876" stroke="white" stroke-width="7" stroke-linecap="round" stroke-linejoin="round"/>
<path d="M549.179 412.017L668.777 252.982" stroke="white" stroke-width="7" stroke-linecap="round" stroke-linejoin="round"/>
<path d="M477.423 457.322L606.938 285.1" stroke="white" stroke-width="7" stroke-linecap="round" stroke-linejoin="round"/>
<path d="M202.255 433.82L268.151 346.194" stroke="white" stroke-width="7" stroke-linecap="round" stroke-linejoin="round"/>
<path d="M151.34 452.63L302.15 252.094" stroke="white" stroke-width="7" stroke-linecap="round" stroke-linejoin="round"/>
<path d="M977.569 533.436H1002.4C1025.34 533.436 1047.33 542.437 1063.55 558.459C1079.77 574.481 1088.89 596.211 1088.89 618.869V688.922C1088.89 693.75 1086.94 698.38 1083.49 701.794C1080.03 705.208 1075.34 707.125 1070.46 707.125H909.509C904.622 707.125 899.934 705.208 896.478 701.794C893.022 698.38 891.081 693.75 891.081 688.922V618.869C891.081 596.211 900.193 574.481 916.413 558.459C932.632 542.437 954.631 533.436 977.569 533.436Z" fill="#BDDCE8"/>
<path d="M694.7 533.436H719.528C742.466 533.436 764.465 542.437 780.684 558.459C796.904 574.481 806.016 596.211 806.016 618.869V688.922C806.016 693.75 804.075 698.38 800.619 701.794C797.163 705.208 792.475 707.125 787.588 707.125H626.659C621.771 707.125 617.084 705.208 613.628 701.794C610.172 698.38 608.231 693.75 608.231 688.922V618.869C608.231 596.214 617.34 574.487 633.556 558.466C649.771 542.444 671.765 533.441 694.7 533.436Z" fill="#7EBAD2"/>
<path d="M32.6926 779.07H1155.88C1155.93 772.753 1154.71 766.488 1152.29 760.639C1149.88 754.789 1146.31 749.47 1141.8 744.987C1137.3 740.504 1131.94 736.947 1126.03 734.519C1120.13 732.092 1113.79 730.843 1107.4 730.845H81.509C68.5617 730.846 56.1451 735.927 46.9903 744.971C37.8356 754.015 32.6926 766.281 32.6926 779.07Z" fill="#BDDCE8"/>
<path d="M1155.93 779.181H36.4964" stroke="#592D29" stroke-width="5" stroke-linecap="round" stroke-linejoin="round"/>
<path d="M411.869 533.436H436.696C459.634 533.436 481.633 542.437 497.853 558.459C514.073 574.481 523.185 596.211 523.185 618.869V687.279C523.185 692.543 521.068 697.591 517.3 701.313C513.532 705.034 508.422 707.125 503.093 707.125H345.476C340.148 707.125 335.037 705.034 331.27 701.313C327.502 697.591 325.385 692.543 325.385 687.279V618.869C325.385 596.212 334.496 574.482 350.715 558.461C366.934 542.439 388.931 533.437 411.869 533.436Z" fill="#BDDCE8"/>
<path d="M129.018 533.436H153.846C165.206 533.433 176.455 535.641 186.951 539.933C197.447 544.225 206.984 550.517 215.018 558.451C223.051 566.384 229.424 575.803 233.772 586.17C238.12 596.537 240.358 607.648 240.358 618.869V687.279C240.358 692.543 238.241 697.591 234.473 701.313C230.705 705.034 225.595 707.125 220.266 707.125H62.6214C57.2928 707.125 52.1825 705.034 48.4146 701.313C44.6467 697.591 42.5299 692.543 42.5299 687.279V618.869C42.5299 596.211 51.6421 574.481 67.8618 558.459C84.0816 542.437 106.08 533.436 129.018 533.436Z" fill="#BDDCE8"/>
<path d="M1079.96 214.664H864.492V460.557H1079.96V214.664Z" fill="#FED4C7"/>
<path d="M885.647 274.263L909.2 305.099H942.137L991.979 365.98V409.189L955.782 435.81" stroke="#F3B304" stroke-width="5" stroke-miterlimit="10"/>
<path d="M957.169 439.248C959.627 439.248 961.619 437.28 961.619 434.852C961.619 432.424 959.627 430.456 957.169 430.456C954.711 430.456 952.719 432.424 952.719 434.852C952.719 437.28 954.711 439.248 957.169 439.248Z" fill="white" stroke="#F3B304" stroke-width="5" stroke-miterlimit="10"/>
<path d="M992.148 412.669C994.605 412.669 996.598 410.701 996.598 408.273C996.598 405.845 994.605 403.877 992.148 403.877C989.69 403.877 987.697 405.845 987.697 408.273C987.697 410.701 989.69 412.669 992.148 412.669Z" fill="white" stroke="#F3B304" stroke-width="5" stroke-miterlimit="10"/>
<path d="M992.148 372.139C994.605 372.139 996.598 370.171 996.598 367.743C996.598 365.315 994.605 363.347 992.148 363.347C989.69 363.347 987.697 365.315 987.697 367.743C987.697 370.171 989.69 372.139 992.148 372.139Z" fill="white" stroke="#F3B304" stroke-width="5" stroke-miterlimit="10"/>
<path d="M943.041 310.342C945.499 310.342 947.491 308.374 947.491 305.946C947.491 303.518 945.499 301.55 943.041 301.55C940.583 301.55 938.59 303.518 938.59 305.946C938.59 308.374 940.583 310.342 943.041 310.342Z" fill="white" stroke="#F3B304" stroke-width="5" stroke-miterlimit="10"/>
<path d="M909.411 310.342C911.869 310.342 913.862 308.374 913.862 305.946C913.862 303.518 911.869 301.55 909.411 301.55C906.953 301.55 904.961 303.518 904.961 305.946C904.961 308.374 906.953 310.342 909.411 310.342Z" fill="white" stroke="#F3B304" stroke-width="5" stroke-miterlimit="10"/>
<path d="M885.858 276.452C888.316 276.452 890.308 274.483 890.308 272.056C890.308 269.628 888.316 267.66 885.858 267.66C883.4 267.66 881.408 269.628 881.408 272.056C881.408 274.483 883.4 276.452 885.858 276.452Z" fill="white" stroke="#F3B304" stroke-width="5" stroke-miterlimit="10"/>
<path d="M1039.3 238.337L1011.44 261.422V313.919L974.248 346.814H932.969L904.488 369.506" stroke="#59221D" stroke-width="5" stroke-linecap="round" stroke-linejoin="round"/>
<path d="M904.699 373.902C907.156 373.902 909.149 371.934 909.149 369.506C909.149 367.078 907.156 365.11 904.699 365.11C902.241 365.11 900.248 367.078 900.248 369.506C900.248 371.934 902.241 373.902 904.699 373.902Z" fill="white" stroke="#59221D" stroke-width="5" stroke-linejoin="round"/>
<path d="M934.299 351.312C936.757 351.312 938.75 349.343 938.75 346.916C938.75 344.488 936.757 342.52 934.299 342.52C931.842 342.52 929.849 344.488 929.849 346.916C929.849 349.343 931.842 351.312 934.299 351.312Z" fill="white" stroke="#59221D" stroke-width="5" stroke-linejoin="round"/>
<path d="M975.331 351.312C977.788 351.312 979.781 349.343 979.781 346.916C979.781 344.488 977.788 342.52 975.331 342.52C972.873 342.52 970.88 344.488 970.88 346.916C970.88 349.343 972.873 351.312 975.331 351.312Z" fill="white" stroke="#59221D" stroke-width="5" stroke-linejoin="round"/>
<path d="M1010.98 317.421C1013.44 317.421 1015.43 315.453 1015.43 313.025C1015.43 310.598 1013.44 308.63 1010.98 308.63C1008.53 308.63 1006.53 310.598 1006.53 313.025C1006.53 315.453 1008.53 317.421 1010.98 317.421Z" fill="white" stroke="#59221D" stroke-width="5" stroke-linejoin="round"/>
<path d="M1010.98 266.919C1013.44 266.919 1015.43 264.951 1015.43 262.524C1015.43 260.096 1013.44 258.128 1010.98 258.128C1008.53 258.128 1006.53 260.096 1006.53 262.524C1006.53 264.951 1008.53 266.919 1010.98 266.919Z" fill="white" stroke="#59221D" stroke-width="5" stroke-linejoin="round"/>
<path d="M1039.91 241.007C1042.37 241.007 1044.36 239.039 1044.36 236.611C1044.36 234.183 1042.37 232.215 1039.91 232.215C1037.45 232.215 1035.46 234.183 1035.46 236.611C1035.46 239.039 1037.45 241.007 1039.91 241.007Z" fill="white" stroke="#59221D" stroke-width="5" stroke-linejoin="round"/>
<path d="M955.782 244.084V280.695L1018.29 359.455H1044.65" stroke="white" stroke-width="5" stroke-miterlimit="10" stroke-linecap="round"/>
<path d="M955.59 244.565C958.048 244.565 960.04 242.597 960.04 240.169C960.04 237.741 958.048 235.773 955.59 235.773C953.132 235.773 951.14 237.741 951.14 240.169C951.14 242.597 953.132 244.565 955.59 244.565Z" fill="#F5BBBB" stroke="white" stroke-width="5" stroke-miterlimit="10"/>
<path d="M955.59 285.1C958.048 285.1 960.04 283.132 960.04 280.704C960.04 278.276 958.048 276.308 955.59 276.308C953.132 276.308 951.14 278.276 951.14 280.704C951.14 283.132 953.132 285.1 955.59 285.1Z" fill="#F5BBBB" stroke="white" stroke-width="5" stroke-miterlimit="10"/>
<path d="M1016.13 362.843C1018.59 362.843 1020.58 360.875 1020.58 358.447C1020.58 356.019 1018.59 354.051 1016.13 354.051C1013.67 354.051 1011.68 356.019 1011.68 358.447C1011.68 360.875 1013.67 362.843 1016.13 362.843Z" fill="#F5BBBB" stroke="white" stroke-width="5" stroke-miterlimit="10"/>
<path d="M1050.44 362.843C1052.9 362.843 1054.89 360.875 1054.89 358.447C1054.89 356.019 1052.9 354.051 1050.44 354.051C1047.98 354.051 1045.99 356.019 1045.99 358.447C1045.99 360.875 1047.98 362.843 1050.44 362.843Z" fill="#F5BBBB" stroke="white" stroke-width="5" stroke-miterlimit="10"/>
<path d="M989.707 190.246H1079.96V148.35H989.707V190.246Z" fill="#FFC200"/>
<path d="M1063.89 161.816H1006.49" stroke="white" stroke-width="5" stroke-miterlimit="10" stroke-linecap="round"/>
<path d="M1063.89 171.792H1006.71" stroke="white" stroke-width="5" stroke-miterlimit="10" stroke-linecap="round"/>
<path d="M1045.05 179.769H1026.46" stroke="white" stroke-width="5" stroke-miterlimit="10" stroke-linecap="round"/>
<path d="M865.335 190.246H957.169V121.258L865.335 121.258V190.246Z" fill="#7EBAD2"/>
<path d="M907.027 135.547H877.271V190.246H907.027V135.547Z" fill="#FED4C7"/>
<path d="M895.11 144.195H938.815" stroke="white" stroke-width="5" stroke-miterlimit="10" stroke-linecap="round"/>
<path d="M895.11 153.214H938.815" stroke="white" stroke-width="5" stroke-miterlimit="10" stroke-linecap="round"/>
<path d="M931.714 179.769C936.733 179.769 940.802 175.75 940.802 170.793C940.802 165.835 936.733 161.816 931.714 161.816C926.695 161.816 922.626 165.835 922.626 170.793C922.626 175.75 926.695 179.769 931.714 179.769Z" fill="#FFC200"/>
<path d="M1434.03 1009.18C1434.03 1009.18 1380.58 1062.46 1319.69 1061.1L1156.23 569.224L1313.43 563.111L1434.03 1009.18Z" fill="#59221D"/>
<path d="M1407.2 830.1L1226.57 1006.02C1221.01 999.305 1180.66 948.646 1181.06 881.87L1303.88 756.373L1238.45 688.075C1192.95 640.085 1171.8 615.677 1156.23 569.224L1324.59 522.419L1425.7 697.505C1437.84 718.529 1442.61 742.928 1439.27 766.908C1435.92 790.888 1424.65 813.104 1407.2 830.1Z" fill="#A74602"/>
<path d="M1268.11 543.45C1267.29 549.534 1256.4 621.415 1200.56 646.476C1195.27 640.188 1190.5 634.14 1186.15 628.115C1243.68 597.848 1264.62 539.956 1264.62 539.956C1265.75 541.159 1266.92 542.324 1268.11 543.45Z" fill="#59221D"/>
<path d="M1301.84 756.373L1322.05 736.869" stroke="#59221D" stroke-width="5" stroke-linecap="round" stroke-linejoin="round"/>
<path d="M1488.8 1077.65V1078.84H1327L1318.71 1054.12C1392.16 1054.54 1432.54 1008.38 1432.54 1008.38L1476.34 1049.3C1484.14 1056.74 1488.62 1066.94 1488.8 1077.65Z" fill="white" stroke="#592D29" stroke-width="5" stroke-linecap="round" stroke-linejoin="round"/>
<path d="M1324.08 1070.15H1487.81" stroke="#592D29" stroke-width="5" stroke-linecap="round" stroke-linejoin="round"/>
<path d="M1453.69 1069.03C1453.65 1063.63 1454.86 1058.28 1457.23 1053.41C1459.6 1048.54 1463.07 1044.26 1467.36 1040.91" stroke="#592D29" stroke-width="5" stroke-linecap="round" stroke-linejoin="round"/>
<path d="M1423.04 1031.8L1441.26 1014.68C1442.06 1013.92 1443.13 1013.51 1444.23 1013.52C1445.34 1013.53 1446.4 1013.97 1447.18 1014.75V1014.75C1447.94 1015.5 1448.38 1016.5 1448.42 1017.56C1448.45 1018.62 1448.08 1019.66 1447.38 1020.46" stroke="#592D29" stroke-width="5" stroke-linecap="round" stroke-linejoin="round"/>
<path d="M1430.66 1038.31L1448.86 1021.19C1449.67 1020.44 1450.73 1020.02 1451.84 1020.04C1452.95 1020.05 1454 1020.49 1454.79 1021.26V1021.26C1455.55 1022.01 1456 1023.02 1456.03 1024.08C1456.07 1025.14 1455.69 1026.17 1454.98 1026.97" stroke="#592D29" stroke-width="5" stroke-linecap="round" stroke-linejoin="round"/>
<path d="M1165.3 1078.78L1156.19 1078.84L1155.96 905.682L1181.07 883.008C1179.94 955.563 1226.27 1005.84 1226.27 1005.84L1177.63 1073.62C1176.02 1075.24 1174.1 1076.53 1171.99 1077.41C1169.87 1078.3 1167.6 1078.76 1165.3 1078.78Z" fill="white" stroke="#592D29" stroke-width="5" stroke-linecap="round" stroke-linejoin="round"/>
<path d="M1165.71 1036.55C1171.02 1037.88 1175.95 1040.38 1180.12 1043.87C1184.3 1047.37 1187.62 1051.75 1189.82 1056.7" stroke="#592D29" stroke-width="5" stroke-linecap="round" stroke-linejoin="round"/>
<path d="M1165.5 897.075V1078.78" stroke="#592D29" stroke-width="5" stroke-linecap="round" stroke-linejoin="round"/>
<path d="M1201.38 1004.97L1217.81 1023.78C1218.54 1024.61 1218.91 1025.68 1218.84 1026.77C1218.77 1027.87 1218.27 1028.89 1217.44 1029.62C1216.65 1030.33 1215.61 1030.72 1214.53 1030.7C1213.46 1030.68 1212.43 1030.27 1211.66 1029.53" stroke="#592D29" stroke-width="5" stroke-linecap="round" stroke-linejoin="round"/>
<path d="M1194.42 1012.16L1210.85 1030.97C1211.58 1031.79 1211.95 1032.87 1211.88 1033.96C1211.81 1035.05 1211.31 1036.07 1210.48 1036.8V1036.8C1209.69 1037.52 1208.65 1037.9 1207.57 1037.89C1206.5 1037.87 1205.47 1037.45 1204.7 1036.72" stroke="#592D29" stroke-width="5" stroke-linecap="round" stroke-linejoin="round"/>
<path d="M1348.65 382.282V521.137C1348.65 525.817 1350.53 530.305 1353.88 533.615C1357.23 536.924 1361.77 538.784 1366.51 538.785C1371.25 538.785 1375.8 536.926 1379.15 533.616C1382.5 530.307 1384.38 525.818 1384.38 521.137V442.677" stroke="#59221D" stroke-width="5" stroke-linecap="round" stroke-linejoin="round"/>
<path d="M1415.46 413.641L1401.51 449.701C1387.7 484.656 1354.6 507.662 1316.62 507.662L1356.15 577.071C1356.15 577.071 1297.03 574.415 1264.62 539.942C1264.62 539.942 1236.51 617.634 1156 640.072L1156.23 569.205V363.19C1156.23 304.252 1204.61 256.485 1264.28 256.513H1264.52C1283.46 256.512 1301.68 263.666 1315.45 276.508C1329.22 289.35 1337.5 306.908 1338.58 325.584L1340.51 358.692L1341.2 370.598C1341.2 370.598 1342.64 417.463 1415.46 413.641Z" fill="#98C8DB"/>
<path d="M1167.85 315.011V636.25C1167.18 636.499 1166.51 636.745 1165.82 636.981V319.171C1165.95 318.898 1166.08 318.625 1166.2 318.351C1166.52 317.681 1166.84 317.01 1167.18 316.348C1167.39 315.894 1167.62 315.455 1167.85 315.011Z" fill="#CEE4ED"/>
<path d="M1180.2 296.145V631.072C1179.53 631.386 1178.86 631.701 1178.18 631.997V298.718C1178.84 297.857 1179.54 297.001 1180.2 296.145Z" fill="#CEE4ED"/>
<path d="M1192.56 283.388V624.547C1191.89 624.945 1191.21 625.337 1190.53 625.722V285.211C1191.2 284.577 1191.87 283.985 1192.56 283.388Z" fill="#CEE4ED"/>
<path d="M1204.91 274.031V616.449C1204.24 616.912 1203.56 617.416 1202.89 617.898V275.383C1203.56 274.926 1204.24 274.476 1204.91 274.031Z" fill="#CEE4ED"/>
<path d="M1217.27 267.1V606.561C1216.6 607.153 1215.93 607.746 1215.24 608.329V268.095C1215.83 267.794 1216.43 267.498 1217.03 267.216C1217.11 267.172 1217.19 267.134 1217.27 267.1Z" fill="#CEE4ED"/>
<path d="M1229.62 262.107V594.488C1228.97 595.21 1228.29 595.927 1227.6 596.64V262.829C1228.26 262.565 1228.95 262.334 1229.62 262.107Z" fill="#CEE4ED"/>
<path d="M1241.98 258.78V579.658C1241.32 580.542 1240.64 581.43 1239.95 582.323V259.22C1240.62 259.067 1241.3 258.919 1241.98 258.78Z" fill="#CEE4ED"/>
<path d="M1254.33 256.952V560.964C1254.07 561.427 1253.8 561.889 1253.52 562.352C1253.13 563.004 1252.73 563.675 1252.32 564.356V257.156C1252.98 257.082 1253.66 257.012 1254.33 256.952Z" fill="#CEE4ED"/>
<path d="M1266.69 256.54V542.08C1266 541.404 1265.32 540.692 1264.66 540.007V256.513C1265.34 256.513 1266.02 256.522 1266.69 256.54Z" fill="#CEE4ED"/>
<path d="M1279.05 257.919V552.288L1278.74 552.075C1278.16 551.672 1277.59 551.26 1277.02 550.849V257.549C1277.7 257.665 1278.38 257.79 1279.05 257.919Z" fill="#CEE4ED"/>
<path d="M1291.4 261.478V559.691C1290.72 559.344 1290.04 558.983 1289.37 558.618V260.733C1290.05 260.978 1290.73 261.219 1291.4 261.478Z" fill="#CEE4ED"/>
<path d="M1303.76 267.595V565.309C1303.08 565.04 1302.4 564.763 1301.73 564.485V266.387C1302.2 266.656 1302.66 266.933 1303.13 267.216C1303.34 267.34 1303.55 267.456 1303.76 267.595Z" fill="#CEE4ED"/>
<path d="M1316.11 277.146V569.617C1315.44 569.409 1314.76 569.2 1314.08 568.978V275.267C1314.55 275.674 1314.99 276.086 1315.45 276.507C1315.67 276.711 1315.89 276.924 1316.11 277.146Z" fill="#CEE4ED"/>
<path d="M1328.47 528.471V572.893C1327.8 572.74 1327.12 572.578 1326.44 572.43V524.913L1326.58 525.153L1327.72 527.157L1328.47 528.471Z" fill="#CEE4ED"/>
<path d="M1328.47 292.628V506.903C1327.79 506.991 1327.12 507.075 1326.44 507.144V289.422C1326.96 290.193 1327.46 290.98 1327.95 291.782C1328.13 292.059 1328.3 292.342 1328.47 292.628Z" fill="#CEE4ED"/>
<path d="M1340.82 365.476V504.442C1340.15 504.627 1339.47 504.803 1338.79 504.969V365.476H1340.82Z" fill="#CEE4ED"/>
<path d="M1340.82 550.182V575.332C1340.16 575.23 1339.48 575.114 1338.79 574.994V546.619L1340.76 550.085L1340.82 550.182Z" fill="#CEE4ED"/>
<path d="M1353.18 395.928V500.088C1352.79 500.259 1352.4 500.425 1352.01 500.583L1351.15 500.939V393.702C1351.78 394.447 1352.45 395.192 1353.18 395.928Z" fill="#CEE4ED"/>
<path d="M1353.18 571.866V576.872C1352.58 576.822 1351.9 576.761 1351.15 576.678V568.303L1353.18 571.866Z" fill="#CEE4ED"/>
<path d="M1365.53 405.122V493.503C1364.86 493.938 1364.19 494.35 1363.5 494.762V403.961L1364.1 404.308C1364.57 404.595 1365.04 404.858 1365.53 405.122Z" fill="#CEE4ED"/>
<path d="M1377.89 410.106V484.049C1377.23 484.66 1376.54 485.257 1375.86 485.845V409.472C1376.52 409.694 1377.22 409.902 1377.89 410.106Z" fill="#CEE4ED"/>
<path d="M1390.24 412.752V470.255C1389.59 471.181 1388.91 472.06 1388.22 472.939V412.428C1388.88 412.535 1389.56 412.641 1390.24 412.752Z" fill="#CEE4ED"/>
<path d="M1402.6 413.789V446.906L1401.51 449.683C1401.28 450.27 1401.05 450.858 1400.8 451.436C1400.72 451.617 1400.65 451.797 1400.57 451.978V413.678C1401.24 413.738 1401.91 413.761 1402.6 413.789Z" fill="#CEE4ED"/>
<path d="M1414.95 413.678V414.964L1414.31 416.621L1412.9 420.212V413.756C1413.59 413.733 1414.27 413.701 1414.95 413.678Z" fill="#CEE4ED"/>
<path d="M1327.72 527.157H1156.23V525.153H1326.58L1327.72 527.157Z" fill="#CEE4ED"/>
<path d="M1320.72 514.876H1156.23V512.873H1319.58L1320.72 514.876Z" fill="#CEE4ED"/>
<path d="M1352.01 500.583L1351.15 500.939C1349.71 501.531 1348.25 502.082 1346.78 502.591H1156.23V500.583H1352.01Z" fill="#CEE4ED"/>
<path d="M1372.86 488.302C1372 488.993 1371.12 489.662 1370.22 490.31H1156.23V488.302H1372.86Z" fill="#CEE4ED"/>
<path d="M1385.68 476.016C1385.1 476.697 1384.51 477.368 1383.91 478.02H1156.25V476.016H1385.68Z" fill="#CEE4ED"/>
<path d="M1394.55 463.736C1394.15 464.411 1393.73 465.082 1393.3 465.739H1156.23V463.736H1394.55Z" fill="#CEE4ED"/>
<path d="M1400.8 451.455C1400.72 451.635 1400.65 451.816 1400.57 451.996C1400.37 452.487 1400.15 452.973 1399.93 453.458H1156.23V451.455H1400.8Z" fill="#CEE4ED"/>
<path d="M1405.59 439.17L1404.81 441.173H1156.23V439.17H1405.59Z" fill="#CEE4ED"/>
<path d="M1410.34 426.889L1409.56 428.892H1156.23V426.889H1410.34Z" fill="#CEE4ED"/>
<path d="M1415.09 414.608L1414.95 414.955L1414.31 416.612H1156.23V414.608H1415.09Z" fill="#CEE4ED"/>
<path d="M1364.1 404.326H1156.23V402.323H1360.87C1361.71 402.887 1362.59 403.447 1363.5 403.979L1364.1 404.326Z" fill="#CEE4ED"/>
<path d="M1349.81 392.045H1156.23V390.042H1348.35C1348.81 390.708 1349.29 391.374 1349.81 392.045Z" fill="#CEE4ED"/>
<path d="M1343.18 379.765H1156.23V377.761H1342.56C1342.72 378.404 1342.94 379.07 1343.18 379.765Z" fill="#CEE4ED"/>
<path d="M1341.02 367.479H1156.23V365.476H1340.91L1341.02 367.479Z" fill="#CEE4ED"/>
<path d="M1340.31 355.198H1156.53C1156.58 354.527 1156.63 353.861 1156.69 353.195H1340.21L1340.31 355.198Z" fill="#CEE4ED"/>
<path d="M1339.59 342.918H1158.18C1158.31 342.247 1158.44 341.58 1158.59 340.914H1339.47L1339.59 342.918Z" fill="#CEE4ED"/>
<path d="M1338.87 330.632H1161.33C1161.55 329.961 1161.78 329.29 1162.01 328.629H1338.81V329.147L1338.87 330.632Z" fill="#CEE4ED"/>
<path d="M1337.8 318.356H1166.2C1166.52 317.685 1166.84 317.014 1167.18 316.352H1337.45C1337.58 317.014 1337.69 317.681 1337.8 318.356Z" fill="#CEE4ED"/>
<path d="M1334.73 306.071H1172.98C1173.41 305.4 1173.85 304.729 1174.3 304.067H1333.98C1334.25 304.733 1334.49 305.4 1334.73 306.071Z" fill="#CEE4ED"/>
<path d="M1329.14 293.785H1182.21C1182.79 293.11 1183.39 292.442 1183.99 291.782H1327.95C1328.13 292.059 1328.3 292.342 1328.47 292.628C1328.7 293.008 1328.92 293.392 1329.14 293.785Z" fill="#CEE4ED"/>
<path d="M1320.32 281.505H1194.78C1195.59 280.824 1196.43 280.153 1197.26 279.501H1318.48C1319.11 280.153 1319.72 280.824 1320.32 281.505Z" fill="#CEE4ED"/>
<path d="M1306.27 269.219H1213.05C1213.77 268.835 1214.49 268.46 1215.22 268.095C1215.81 267.794 1216.41 267.498 1217.01 267.215H1303.12C1303.32 267.34 1303.54 267.465 1303.74 267.595C1304.61 268.113 1305.44 268.655 1306.27 269.219Z" fill="#CEE4ED"/>
<path d="M1193.88 623.756L1192.56 624.538C1191.89 624.936 1191.21 625.328 1190.53 625.713V625.759H1156.05V623.756H1193.88Z" fill="#CEE4ED"/>
<path d="M1211.43 611.484C1210.6 612.155 1209.75 612.826 1208.89 613.488H1156.09V611.484H1211.43Z" fill="#CEE4ED"/>
<path d="M1225.09 599.199C1224.42 599.87 1223.75 600.541 1223.06 601.203H1156.12V599.199H1225.09Z" fill="#CEE4ED"/>
<path d="M1236.26 586.918C1235.71 587.585 1235.14 588.255 1234.58 588.922H1156.16V586.918H1236.26Z" fill="#CEE4ED"/>
<path d="M1245.59 574.637C1245.12 575.299 1244.65 575.97 1244.18 576.641H1156.2V574.637H1245.59Z" fill="#CEE4ED"/>
<path d="M1355.89 576.641H1350.74C1348.17 576.368 1344.8 575.951 1340.84 575.313C1340.18 575.211 1339.5 575.095 1338.81 574.975C1338.12 574.855 1337.54 574.757 1336.89 574.637H1354.74L1355.89 576.641Z" fill="#CEE4ED"/>
<path d="M1253.52 562.352C1253.13 563.004 1252.73 563.675 1252.32 564.356H1156.23V562.352H1253.52Z" fill="#CEE4ED"/>
<path d="M1348.9 564.356H1301.42C1299.89 563.717 1298.37 563.049 1296.84 562.352H1347.76L1348.9 564.356Z" fill="#CEE4ED"/>
<path d="M1260.16 550.067C1259.84 550.71 1259.51 551.376 1259.16 552.075H1156.23V550.067H1260.16Z" fill="#CEE4ED"/>
<path d="M1341.91 552.075H1278.74C1278.16 551.672 1277.59 551.26 1277.02 550.849L1275.97 550.067H1340.76L1340.82 550.164L1341.91 552.075Z" fill="#CEE4ED"/>
<path d="M1334.91 539.789H1156.23V537.781H1333.77L1334.91 539.789Z" fill="#CEE4ED"/>
<path d="M1226.18 263.324L1242.53 244.112C1243.3 243.208 1244.27 242.496 1245.37 242.034C1246.47 241.573 1247.67 241.374 1248.86 241.456L1292.85 244.431C1294.13 244.518 1295.36 244.922 1296.44 245.604C1297.52 246.287 1298.4 247.227 1299.01 248.336L1313.06 273.925C1313.06 273.925 1293.58 256.596 1261.17 257.225C1240.26 257.628 1226.18 263.324 1226.18 263.324Z" fill="#7EBAD2"/>
<path d="M1313.59 273.425C1313.59 273.425 1292.93 256.596 1259.4 257.23C1237.76 257.632 1223.19 263.329 1223.19 263.329" stroke="white" stroke-width="5" stroke-linecap="round" stroke-linejoin="round"/>
<path d="M1414.28 414.821C1332.3 415.612 1340.66 366.563 1340.66 366.563L1298.29 409.472" stroke="white" stroke-width="5" stroke-linecap="round" stroke-linejoin="round"/>
<path d="M1218.05 393.077C1218.05 393.077 1242.05 508.241 1320.83 509.06" stroke="white" stroke-width="5" stroke-linecap="round" stroke-linejoin="round"/>
<path d="M1298.05 235.334L1295.16 244.944C1294.43 244.658 1293.66 244.485 1292.88 244.431L1248.87 241.451C1248.65 241.451 1248.44 241.451 1248.23 241.451L1268.14 204.757L1298.05 235.334Z" fill="#FFC200"/>
<path d="M1298.05 235.334L1295.16 244.944C1294.43 244.658 1293.66 244.485 1292.88 244.431L1284.26 243.857C1281.21 240.909 1279.66 236.888 1279.73 232.289L1279.81 226.306L1281.11 218.023L1298.05 235.334Z" fill="#A74602"/>
<path d="M1284.24 201.939C1284.24 201.939 1301.92 204.9 1312.52 196.386C1324.73 186.613 1320.88 170.691 1310.22 169.626C1298.39 168.446 1296.39 179.631 1297.27 180.774C1297.27 180.774 1293.63 182.967 1284.45 181.236C1277.47 179.927 1271.92 178.585 1264.89 184.276C1257.55 190.218 1258.89 206.279 1270.73 210.522C1277.94 213.132 1284.24 201.939 1284.24 201.939Z" fill="#A74602"/>
<path d="M1284.99 202.031C1305.6 204.178 1313.46 195.488 1313.46 195.488C1318.9 201.504 1318.15 220.295 1318.15 220.295C1308.21 224.793 1307.68 237.8 1307.68 237.8C1303.83 238.071 1299.97 238.057 1296.13 237.758C1292.38 237.469 1288.87 235.778 1286.33 233.028C1283.79 230.277 1282.4 226.675 1282.45 222.951L1282.5 219.601H1281.54C1280.34 219.628 1279.15 219.418 1278.04 218.985C1276.93 218.551 1275.91 217.902 1275.06 217.076C1274.2 216.25 1273.52 215.263 1273.06 214.174C1272.59 213.085 1272.35 211.915 1272.35 210.733C1272.35 209.551 1272.59 208.381 1273.06 207.291C1273.52 206.202 1274.2 205.215 1275.06 204.389C1275.91 203.563 1276.93 202.914 1278.04 202.481C1279.15 202.047 1280.34 201.838 1281.54 201.865L1284.99 202.031Z" fill="#FFC200"/>
<path d="M1301.8 205.275C1301.8 205.275 1306.67 202.142 1311.22 202.549" stroke="#59221D" stroke-width="5" stroke-linecap="round" stroke-linejoin="round"/>
<path d="M1307.23 212.466C1308.11 212.466 1308.83 211.328 1308.83 209.925C1308.83 208.522 1308.11 207.385 1307.23 207.385C1306.34 207.385 1305.62 208.522 1305.62 209.925C1305.62 211.328 1306.34 212.466 1307.23 212.466Z" fill="#59221D"/>
<path d="M1304.18 224.353C1304.18 224.353 1304.28 227.384 1309.42 227.625" stroke="#59221D" stroke-width="5" stroke-linecap="round" stroke-linejoin="round"/>
<path d="M1278.64 210.411C1278.64 209.896 1278.74 209.385 1278.94 208.909C1279.14 208.433 1279.43 208 1279.8 207.635C1280.17 207.271 1280.61 206.982 1281.09 206.785C1281.57 206.588 1282.09 206.487 1282.61 206.487" stroke="#59221D" stroke-width="5" stroke-linecap="round" stroke-linejoin="round"/>
<path d="M1283.02 199.616H1279.45C1274.15 199.616 1269.84 203.865 1269.84 209.106V212.628C1269.84 217.869 1274.15 222.118 1279.45 222.118H1283.02C1288.32 222.118 1292.63 217.869 1292.63 212.628V209.106C1292.63 203.865 1288.32 199.616 1283.02 199.616Z" fill="white" stroke="#59221D" stroke-width="5" stroke-linecap="round" stroke-linejoin="round"/>
<path d="M1281.92 199.176V180.001C1281.92 179.231 1282.23 178.493 1282.78 177.949C1283.33 177.405 1284.07 177.099 1284.85 177.099V177.099C1285.63 177.099 1286.38 177.405 1286.93 177.949C1287.48 178.493 1287.79 179.231 1287.79 180.001" stroke="#59221D" stroke-width="5" stroke-linecap="round" stroke-linejoin="round"/>
<path d="M1280.72 222.373V236.884C1280.72 242.941 1282.51 248.867 1285.87 253.935C1289.23 259.002 1294.02 262.991 1299.64 265.411V265.411C1329.39 278.228 1348.63 308.246 1348.63 340.313V367.151" stroke="#59221D" stroke-width="5" stroke-linecap="round" stroke-linejoin="round"/>
<path d="M1416.87 411.79C1344.04 415.612 1342.14 368.294 1342.14 368.294L1405.48 269.367C1407.98 265.436 1411.45 262.195 1415.56 259.949C1419.67 257.702 1424.29 256.523 1428.99 256.522H1437.22L1435.85 259.03C1435.34 259.957 1435.09 260.999 1435.11 262.053C1435.13 263.107 1435.43 264.137 1435.98 265.042C1436.52 265.947 1437.3 266.697 1438.23 267.217C1439.16 267.738 1440.2 268.011 1441.27 268.011H1447.16C1448.29 268.012 1449.39 267.711 1450.35 267.14C1451.31 266.57 1452.09 265.751 1452.62 264.772L1467.5 236.837L1472.49 252.08C1474.1 256.993 1473.96 262.303 1472.1 267.128L1416.87 411.79Z" fill="#FFC200"/>
<path d="M1467.04 237.689L1452.64 264.749C1452.12 265.729 1451.33 266.548 1450.37 267.119C1449.41 267.69 1448.31 267.991 1447.19 267.988H1441.1C1440.04 267.987 1439.01 267.718 1438.09 267.208C1437.17 266.698 1436.4 265.963 1435.85 265.074C1435.3 264.185 1434.99 263.171 1434.95 262.13C1434.91 261.089 1435.14 260.055 1435.62 259.127L1446.86 237.735C1447.51 236.483 1448.5 235.432 1449.72 234.698C1450.94 233.964 1452.33 233.574 1453.76 233.571H1464.53C1465.02 233.572 1465.5 233.698 1465.93 233.937C1466.35 234.175 1466.71 234.518 1466.96 234.932C1467.21 235.346 1467.35 235.818 1467.37 236.3C1467.38 236.783 1467.27 237.262 1467.04 237.689Z" fill="#59221D"/>
<path d="M1435.1 364.55C1435.1 364.55 1441.68 413.599 1413.26 413.821C1338.93 414.335 1341.21 371.075 1341.21 371.075C1341.21 351.344 1358.88 341.724 1358.88 341.724C1358.88 341.724 1359.94 360.182 1388.63 368.368C1417.33 376.553 1435.1 364.55 1435.1 364.55Z" fill="#7EBAD2"/>
<path d="M1156 68.4836H30.3504" stroke="#592D29" stroke-width="5" stroke-linecap="round" stroke-linejoin="round"/>
<path d="M1156 1.1568V1078.39" stroke="#592D29" stroke-width="5" stroke-linecap="round" stroke-linejoin="round"/>
<path d="M1038.41 68.4836L1156 174.032" stroke="#592D29" stroke-width="5" stroke-linecap="round" stroke-linejoin="round"/>
<path d="M1031.37 1078.84H1891.83" stroke="#592D29" stroke-width="5" stroke-linecap="round" stroke-linejoin="round"/>
<path d="M1028.6 709.92H951.407C918.822 709.92 895.404 678.955 904.651 648.086C910.098 629.896 921.354 613.935 936.739 602.584C952.124 591.233 970.813 585.101 990.016 585.104C1009.22 585.106 1027.9 591.239 1043.29 602.589C1058.67 613.94 1069.93 629.899 1075.38 648.086C1084.61 678.955 1061.19 709.92 1028.6 709.92Z" fill="#FFC200"/>
<path d="M1073.87 733.695C1074.58 757.646 1058.06 778.117 1038.55 778.117H940.82C931.067 778.117 922.237 773.147 915.847 765.114C909.458 757.081 905.5 745.981 905.5 733.718C905.5 724.001 907.992 714.982 912.217 707.667C918.494 693.993 934.295 684.285 952.648 685.553C958.26 685.892 963.773 687.165 968.955 689.32H1009.71C1014.89 687.165 1020.4 685.892 1026.02 685.553C1041.01 684.517 1054.3 690.805 1062.09 700.596C1064.74 703.641 1073.29 714.288 1073.87 733.695Z" fill="#59221D"/>
<path d="M1050.57 826.144H996.087L994.162 727.277C993.773 707.144 1011.1 690.768 1031.38 692.721C1039.82 693.544 1047.64 697.433 1053.34 703.634C1059.04 709.834 1062.2 717.904 1062.21 726.278L1050.57 826.144Z" fill="#A74602"/>
<path d="M917.782 726.278C917.782 707.056 933.564 691.374 953.332 692.961C971.03 694.377 984.512 709.272 984.512 726.805V826.148H928.538L917.782 726.278Z" fill="#A74602"/>
<path d="M1050.42 826.143L1045.49 865.151C1041.02 866.243 1015.43 871.944 996.776 864.383L996.068 826.143H1050.42Z" fill="#7EBAD2"/>
<path d="M1003.59 862.194C1005.43 862.194 1006.91 860.726 1006.91 858.914C1006.91 857.102 1005.43 855.633 1003.59 855.633C1001.76 855.633 1000.27 857.102 1000.27 858.914C1000.27 860.726 1001.76 862.194 1003.59 862.194Z" fill="#CEE4ED"/>
<path d="M1019.41 854.453C1021.24 854.453 1022.73 852.984 1022.73 851.172C1022.73 849.36 1021.24 847.891 1019.41 847.891C1017.58 847.891 1016.09 849.36 1016.09 851.172C1016.09 852.984 1017.58 854.453 1019.41 854.453Z" fill="#CEE4ED"/>
<path d="M1008.17 849.46C1010 849.46 1011.49 847.991 1011.49 846.179C1011.49 844.368 1010 842.899 1008.17 842.899C1006.33 842.899 1004.85 844.368 1004.85 846.179C1004.85 847.991 1006.33 849.46 1008.17 849.46Z" fill="#CEE4ED"/>
<path d="M1019.41 837.957C1021.24 837.957 1022.73 836.488 1022.73 834.676C1022.73 832.864 1021.24 831.395 1019.41 831.395C1017.58 831.395 1016.09 832.864 1016.09 834.676C1016.09 836.488 1017.58 837.957 1019.41 837.957Z" fill="#CEE4ED"/>
<path d="M1002.49 835.99C1004.32 835.99 1005.81 834.521 1005.81 832.709C1005.81 830.898 1004.32 829.429 1002.49 829.429C1000.65 829.429 999.165 830.898 999.165 832.709C999.165 834.521 1000.65 835.99 1002.49 835.99Z" fill="#CEE4ED"/>
<path d="M1028.84 861.186C1030.67 861.186 1032.16 859.717 1032.16 857.905C1032.16 856.093 1030.67 854.624 1028.84 854.624C1027 854.624 1025.51 856.093 1025.51 857.905C1025.51 859.717 1027 861.186 1028.84 861.186Z" fill="#CEE4ED"/>
<path d="M1031.37 845.86C1033.2 845.86 1034.69 844.392 1034.69 842.58C1034.69 840.768 1033.2 839.299 1031.37 839.299C1029.53 839.299 1028.04 840.768 1028.04 842.58C1028.04 844.392 1029.53 845.86 1031.37 845.86Z" fill="#CEE4ED"/>
<path d="M1041.76 836.657C1043.6 836.657 1045.09 835.188 1045.09 833.376C1045.09 831.564 1043.6 830.095 1041.76 830.095C1039.93 830.095 1038.44 831.564 1038.44 833.376C1038.44 835.188 1039.93 836.657 1041.76 836.657Z" fill="#CEE4ED"/>
<path d="M1041.76 854.166C1043.6 854.166 1045.09 852.697 1045.09 850.885C1045.09 849.073 1043.6 847.605 1041.76 847.605C1039.93 847.605 1038.44 849.073 1038.44 850.885C1038.44 852.697 1039.93 854.166 1041.76 854.166Z" fill="#CEE4ED"/>
<path d="M1043.09 864.651C1043.09 865.022 1043.02 865.39 1042.89 865.739C1041.42 866.049 1039.5 866.424 1037.24 866.785C1036.9 866.383 1036.65 865.904 1036.53 865.389C1036.41 864.873 1036.42 864.337 1036.55 863.824C1036.68 863.312 1036.94 862.84 1037.3 862.447C1037.66 862.055 1038.11 861.754 1038.61 861.571C1039.12 861.387 1039.66 861.326 1040.19 861.394C1040.72 861.461 1041.22 861.654 1041.66 861.957C1042.1 862.259 1042.46 862.662 1042.71 863.132C1042.96 863.601 1043.09 864.122 1043.09 864.651Z" fill="#CEE4ED"/>
<path d="M1015.62 867.983C1017.46 867.983 1018.94 866.514 1018.94 864.702C1018.94 862.89 1017.46 861.422 1015.62 861.422C1013.79 861.422 1012.3 862.89 1012.3 864.702C1012.3 866.514 1013.79 867.983 1015.62 867.983Z" fill="#CEE4ED"/>
<path d="M984.596 864.161C963.943 872.175 934.435 865.452 934.435 865.452L928.538 826.143H984.507L984.596 864.161Z" fill="#7EBAD2"/>
<path d="M937.972 862.37C939.904 862.37 941.471 860.823 941.471 858.914C941.471 857.005 939.904 855.457 937.972 855.457C936.039 855.457 934.473 857.005 934.473 858.914C934.473 860.823 936.039 862.37 937.972 862.37Z" fill="#CEE4ED"/>
<path d="M953.595 854.629C955.527 854.629 957.094 853.081 957.094 851.172C957.094 849.263 955.527 847.716 953.595 847.716C951.662 847.716 950.095 849.263 950.095 851.172C950.095 853.081 951.662 854.629 953.595 854.629Z" fill="#CEE4ED"/>
<path d="M942.797 847.989C944.73 847.989 946.296 846.441 946.296 844.532C946.296 842.623 944.73 841.076 942.797 841.076C940.864 841.076 939.298 842.623 939.298 844.532C939.298 846.441 940.864 847.989 942.797 847.989Z" fill="#CEE4ED"/>
<path d="M954.644 837.952C956.576 837.952 958.143 836.405 958.143 834.496C958.143 832.587 956.576 831.039 954.644 831.039C952.711 831.039 951.144 832.587 951.144 834.496C951.144 836.405 952.711 837.952 954.644 837.952Z" fill="#CEE4ED"/>
<path d="M935.625 836.166C937.558 836.166 939.124 834.618 939.124 832.709C939.124 830.8 937.558 829.253 935.625 829.253C933.693 829.253 932.126 830.8 932.126 832.709C932.126 834.618 933.693 836.166 935.625 836.166Z" fill="#CEE4ED"/>
<path d="M963.746 862.875C965.678 862.875 967.245 861.327 967.245 859.418C967.245 857.509 965.678 855.962 963.746 855.962C961.813 855.962 960.247 857.509 960.247 859.418C960.247 861.327 961.813 862.875 963.746 862.875Z" fill="#CEE4ED"/>
<path d="M967.245 846.036C969.178 846.036 970.744 844.488 970.744 842.579C970.744 840.67 969.178 839.123 967.245 839.123C965.312 839.123 963.746 840.67 963.746 842.579C963.746 844.488 965.312 846.036 967.245 846.036Z" fill="#CEE4ED"/>
<path d="M977.41 836.166C979.343 836.166 980.909 834.618 980.909 832.709C980.909 830.8 979.343 829.253 977.41 829.253C975.478 829.253 973.911 830.8 973.911 832.709C973.911 834.618 975.478 836.166 977.41 836.166Z" fill="#CEE4ED"/>
<path d="M978.206 852.949C980.139 852.949 981.706 851.402 981.706 849.493C981.706 847.584 980.139 846.036 978.206 846.036C976.274 846.036 974.707 847.584 974.707 849.493C974.707 851.402 976.274 852.949 978.206 852.949Z" fill="#CEE4ED"/>
<path d="M976.099 866.54C978.031 866.54 979.598 864.992 979.598 863.083C979.598 861.174 978.031 859.626 976.099 859.626C974.166 859.626 972.599 861.174 972.599 863.083C972.599 864.992 974.166 866.54 976.099 866.54Z" fill="#CEE4ED"/>
<path d="M954.649 866.007C954.65 866.697 954.441 867.371 954.049 867.942C951.922 867.84 949.894 867.682 947.997 867.479C947.767 867.015 947.648 866.505 947.65 865.989C947.65 865.072 948.019 864.193 948.675 863.545C949.331 862.896 950.221 862.532 951.149 862.532C952.077 862.532 952.967 862.896 953.624 863.545C954.28 864.193 954.649 865.072 954.649 865.989V866.007Z" fill="#CEE4ED"/>
<path d="M996.776 864.374V891.147C996.774 893.195 997.232 895.218 998.115 897.071C998.999 898.924 1000.29 900.561 1001.89 901.864L1024.3 920.128C1026.42 921.577 1028.94 922.353 1031.52 922.354H1055.4C1064.96 922.354 1071.1 915.056 1066.67 906.69L1044.78 865.434C1044.78 865.434 1017.28 872.703 996.776 864.374Z" fill="white" stroke="#592D29" stroke-width="4" stroke-linecap="round" stroke-linejoin="round"/>
<path d="M1067.62 909.721C1065.5 913.502 1061.85 916.199 1056.87 916.199H1031.51C1028.93 916.199 1026.41 915.423 1024.29 913.974L1003.1 896.709C1001.12 895.093 999.526 893.064 998.43 890.768C997.334 888.471 996.766 885.963 996.766 883.424" stroke="#592D29" stroke-width="4" stroke-linecap="round" stroke-linejoin="round"/>
<path d="M1035.73 867.655L1041.35 879.223C1041.71 879.977 1041.88 880.811 1041.83 881.645C1041.78 882.48 1041.52 883.289 1041.06 883.996C1040.61 884.703 1039.99 885.286 1039.25 885.69C1038.51 886.094 1037.67 886.307 1036.83 886.307H1032.24C1030.27 886.307 1028.33 885.779 1026.63 884.777C1024.94 883.776 1023.55 882.339 1022.61 880.62L1015.87 868.279" stroke="#592D29" stroke-width="4" stroke-linecap="round" stroke-linejoin="round"/>
<path d="M983.804 864.374V891.397C983.805 893.463 983.344 895.504 982.453 897.374C981.562 899.243 980.264 900.895 978.652 902.211L956.04 920.641C953.895 922.103 951.352 922.886 948.746 922.886H924.663C915.014 922.886 908.811 915.524 913.29 907.079L935.381 865.434C935.381 865.434 963.118 872.772 983.804 864.374Z" fill="white" stroke="#592D29" stroke-width="4" stroke-linecap="round" stroke-linejoin="round"/>
<path d="M912.306 910.142C914.447 913.96 918.133 916.694 923.15 916.694H948.742C951.346 916.695 953.888 915.912 956.03 914.45L977.405 897.028C979.408 895.396 981.02 893.346 982.126 891.026C983.232 888.707 983.805 886.174 983.804 883.609" stroke="#592D29" stroke-width="4" stroke-linecap="round" stroke-linejoin="round"/>
<path d="M944.497 867.687L938.843 879.343C938.474 880.104 938.307 880.946 938.356 881.789C938.406 882.631 938.671 883.448 939.126 884.162C939.582 884.876 940.214 885.464 940.962 885.872C941.711 886.279 942.551 886.493 943.406 886.492H948.039C950.031 886.492 951.985 885.959 953.695 884.949C955.405 883.94 956.806 882.492 957.75 880.759L964.556 868.298" stroke="#592D29" stroke-width="4" stroke-linecap="round" stroke-linejoin="round"/>
<path d="M987.009 658.326C950.887 661.195 929.053 642.524 939.078 632.414C947.294 624.112 967.184 637.504 976.754 644.833C978.389 650.034 982.006 654.814 987.009 658.326Z" fill="white"/>
<path d="M999.129 615.023C1000.29 610.594 997.769 606.121 993.504 605.032C989.238 603.943 984.841 606.651 983.682 611.08C982.523 615.509 985.042 619.982 989.308 621.071C993.573 622.16 997.971 619.452 999.129 615.023Z" fill="white"/>
<path d="M991.304 617.995C990.998 619.164 990.388 620.232 989.533 621.095C989.447 621.081 989.361 621.063 989.276 621.04C985.013 619.948 982.493 615.487 983.655 611.049C983.803 610.478 984.008 609.923 984.268 609.393C985.355 609.35 986.436 609.559 987.426 610.003C988.417 610.447 989.288 611.113 989.971 611.949C990.653 612.785 991.129 613.767 991.359 614.817C991.589 615.867 991.567 616.955 991.295 617.995H991.304Z" fill="#CEE4ED"/>
<path d="M1035.25 624.24C1036.41 619.811 1033.89 615.337 1029.62 614.248C1025.35 613.159 1020.96 615.867 1019.8 620.296C1018.64 624.725 1021.16 629.198 1025.42 630.287C1029.69 631.376 1034.09 628.668 1035.25 624.24Z" fill="white"/>
<path d="M1035.38 623.395C1035.34 623.668 1035.29 623.936 1035.22 624.209C1034.06 628.638 1029.66 631.345 1025.38 630.257C1025 630.159 1024.63 630.032 1024.26 629.878C1024.24 629.14 1024.32 628.403 1024.51 627.689C1025.52 623.793 1029.39 621.415 1033.15 622.372C1033.95 622.572 1034.71 622.919 1035.38 623.395Z" fill="#CEE4ED"/>
<path d="M1030.44 647.475C1033.7 635.024 1024.26 621.848 1009.37 618.045C994.47 614.243 979.753 621.253 976.496 633.704C973.238 646.154 982.674 659.33 997.57 663.133C1012.47 666.936 1027.18 659.925 1030.44 647.475Z" fill="white"/>
<path d="M994.225 637.13C994.471 636.186 993.932 635.232 993.021 635C992.111 634.768 991.172 635.346 990.926 636.29C990.68 637.235 991.218 638.189 992.129 638.42C993.04 638.652 993.978 638.075 994.225 637.13Z" fill="#59221D"/>
<path d="M1015.98 644.969C1016.22 644.026 1015.69 643.074 1014.78 642.842C1013.87 642.61 1012.93 643.186 1012.68 644.128C1012.44 645.071 1012.98 646.023 1013.88 646.255C1014.79 646.488 1015.73 645.912 1015.98 644.969Z" fill="#59221D"/>
<path d="M1047.8 694.553C1061.38 693.026 1069.87 679.616 1066.73 668.552C1062.75 654.518 1050.34 651.256 1036.79 652.741C1021.06 654.467 983.851 657.322 949.13 652.158C949.13 652.158 940.666 676.858 962.458 687.834C970.468 691.846 1013.98 698.347 1047.8 694.553Z" fill="#A74602"/>
<path d="M949.369 653.199C949.369 653.199 940.783 677.52 964.275 689.695" stroke="#59221D" stroke-width="4" stroke-miterlimit="10" stroke-linecap="round"/>
<path d="M949.355 653.139C949.355 653.139 949.247 661.334 960.509 661.542" stroke="#59221D" stroke-width="4" stroke-miterlimit="10" stroke-linecap="round"/>
<path d="M948.128 661.343C948.128 661.343 948.634 669.399 959.891 669.607" stroke="#59221D" stroke-width="4" stroke-miterlimit="10" stroke-linecap="round"/>
<path d="M948.17 667.84C948.17 667.84 948.503 676.965 959.741 677.043" stroke="#59221D" stroke-width="4" stroke-miterlimit="10" stroke-linecap="round"/>
<path d="M1009.88 587.321C1007.51 593.993 999.521 598.889 990.025 598.889C980.53 598.889 972.524 593.975 970.163 587.293C972.755 586.716 975.383 586.253 978.047 585.905V571.852H1004.12V586.196C1006.06 586.514 1007.98 586.889 1009.88 587.321Z" fill="#A74602"/>
<path d="M997.197 582.953C1001.3 580.32 1004.12 576.673 1004.12 571.847H978.047V586.192C978.047 586.192 989.819 587.7 997.197 582.953Z" fill="#59221D"/>
<path d="M1009.06 556.392H1001.49L987.144 538.346H995.3C998.948 538.346 1002.45 539.777 1005.03 542.325C1007.61 544.872 1009.06 548.328 1009.06 551.931V556.392Z" fill="#FFC200"/>
<path d="M974.899 553.648L1000.26 553.62L988.217 538.063C984.39 532.788 978.694 529.66 972.121 529.66H971.653C964.467 529.66 960.139 537.8 964.476 543.463C965.807 545.199 974.899 553.648 974.899 553.648Z" fill="white" stroke="#FFC200" stroke-width="4" stroke-miterlimit="10"/>
<path d="M1015.06 563.416V564.804C1015.06 566.667 1014.31 568.454 1012.98 569.771C1011.64 571.089 1009.83 571.829 1007.95 571.829H1001.28C1000.14 574.923 998.056 577.596 995.322 579.483C992.588 581.371 989.333 582.384 985.997 582.383H983.823C982.274 582.384 980.741 582.083 979.31 581.498C977.879 580.913 976.578 580.055 975.483 578.974C974.388 577.892 973.519 576.608 972.926 575.195C972.333 573.781 972.028 572.266 972.028 570.737V559.289C972.028 557.485 972.435 555.704 973.218 554.075C974.001 552.445 975.142 551.008 976.556 549.868C977.971 548.728 979.624 547.912 981.397 547.481C983.17 547.049 985.018 547.013 986.807 547.374L989.426 547.901C991.814 548.385 994.06 549.399 995.993 550.867C997.926 552.335 999.496 554.218 1000.58 556.374H1007.95C1008.88 556.374 1009.81 556.556 1010.67 556.91C1011.54 557.264 1012.32 557.783 1012.98 558.437C1013.64 559.092 1014.17 559.868 1014.52 560.722C1014.88 561.577 1015.06 562.492 1015.06 563.416Z" fill="#A74602"/>
<path d="M1004.5 565.017C1004.5 563.707 1005.03 562.45 1005.97 561.523C1006.91 560.596 1008.18 560.075 1009.51 560.075" stroke="#59221D" stroke-width="4" stroke-miterlimit="10" stroke-linecap="round"/>
<path d="M1005.41 556.392C1004.13 556.393 1002.86 556.647 1001.67 557.14C1000.49 557.632 999.419 558.353 998.523 559.261C998.348 559.442 998.138 559.586 997.906 559.685C997.673 559.783 997.422 559.834 997.169 559.835C996.917 559.836 996.666 559.789 996.432 559.694C996.199 559.6 995.986 559.461 995.807 559.285C995.628 559.109 995.486 558.9 995.389 558.669C995.293 558.439 995.243 558.192 995.244 557.942V557.891C995.247 555.963 994.481 554.111 993.112 552.736C966.922 559.159 965.718 544.407 972.033 541.705C977.448 539.392 991.065 547.383 996.059 550.497L1005.41 556.392Z" fill="#59221D"/>
<path d="M972.487 558.41C972.487 558.41 976.085 557.484 978.478 560.075C980.254 561.991 980.029 569.02 980.029 569.02" stroke="#59221D" stroke-width="4" stroke-miterlimit="10" stroke-linecap="round"/>
<path d="M984.826 558.701C984.826 558.701 989.88 557.748 992.517 559.84" stroke="#59221D" stroke-width="4" stroke-miterlimit="10" stroke-linecap="round"/>
<path d="M974.759 566.359C975.429 566.359 975.972 565.454 975.972 564.337C975.972 563.22 975.429 562.315 974.759 562.315C974.089 562.315 973.546 563.22 973.546 564.337C973.546 565.454 974.089 566.359 974.759 566.359Z" fill="#59221D"/>
<path d="M987.5 566.359C988.171 566.359 988.714 565.454 988.714 564.337C988.714 563.22 988.171 562.315 987.5 562.315C986.83 562.315 986.287 563.22 986.287 564.337C986.287 565.454 986.83 566.359 987.5 566.359Z" fill="#59221D"/>
<path d="M743.779 445.745C743.779 461.565 733.441 476.003 704.144 477.238C666.172 477.881 656.237 463.972 656.237 447.721C656.237 433.122 666.734 420.998 680.521 418.629V406.774C680.521 404.571 680.96 402.389 681.814 400.353C682.668 398.318 683.92 396.469 685.498 394.911C687.076 393.354 688.949 392.119 691.01 391.277C693.072 390.435 695.281 390.003 697.511 390.005H702.121C706.617 390.015 710.925 391.786 714.101 394.929C717.276 398.073 719.06 402.333 719.06 406.774V418.388C725.862 419.153 732.142 422.365 736.701 427.41C741.26 432.455 743.78 438.982 743.779 445.745Z" fill="white"/>
<path d="M626.139 743.343H762.077C789.209 743.343 811.207 720.72 811.207 692.818C811.207 664.915 789.19 642.297 762.077 642.297H626.139C599.002 642.297 577.009 664.915 577.009 692.818C577.009 720.72 599.002 743.343 626.139 743.343Z" fill="#59221D"/>
<path d="M812.533 705.422V1055.02C812.536 1058.08 811.929 1061.12 810.744 1063.95C809.559 1066.78 807.82 1069.35 805.628 1071.52C795.322 1065.72 781.587 1058.61 770.181 1053.42C729.168 1034.79 706.44 1036.83 702.313 1037.42L690.601 731.095L689.707 707.69C689.404 699.634 690.73 691.6 693.607 684.056C696.483 676.512 700.852 669.61 706.46 663.753C712.067 657.895 718.799 653.201 726.263 649.942C733.728 646.684 741.775 644.928 749.934 644.776C758.094 644.624 766.202 646.08 773.785 649.058C781.369 652.036 788.275 656.477 794.102 662.121C799.928 667.766 804.558 674.5 807.72 681.932C810.882 689.363 812.513 697.343 812.518 705.404L812.533 705.422Z" fill="#59221D"/>
<path d="M686.376 1068.2C685.888 1069.1 685.644 1070.11 685.669 1071.13C685.693 1072.15 685.985 1073.14 686.516 1074.02C687.047 1074.9 687.798 1075.62 688.698 1076.13C689.597 1076.63 690.612 1076.89 691.646 1076.9H789.518C792.241 1076.9 794.939 1076.38 797.453 1075.34C799.967 1074.31 802.248 1072.79 804.161 1070.88C793.715 1064.95 782.088 1058.83 770.181 1053.42C724.62 1032.72 703.029 1037.52 703.029 1037.52L686.376 1068.2Z" fill="white" stroke="#F3B304" stroke-width="6" stroke-miterlimit="10"/>
<path d="M691.576 726.972L618.845 1039.04C618.845 1039.04 589.802 1034.24 545.464 1054.94C533.884 1060.35 522.576 1066.47 512.415 1072.4C510.328 1070.27 508.763 1067.69 507.84 1064.87C506.917 1062.05 506.66 1059.05 507.089 1056.12L558.004 702.452C560.309 686.438 568.387 671.784 580.754 661.183C593.12 650.581 608.945 644.745 625.319 644.745C669.03 644.745 701.38 684.896 691.576 726.972Z" fill="#59221D"/>
<path d="M632.168 1062.3C632.999 1063.87 633.406 1065.63 633.349 1067.4C633.291 1069.18 632.772 1070.91 631.841 1072.42C630.91 1073.94 629.599 1075.2 628.034 1076.07C626.469 1076.94 624.703 1077.4 622.907 1077.4H527.167C524.503 1077.4 521.867 1076.87 519.418 1075.83C516.969 1074.8 514.759 1073.28 512.921 1071.38C523.082 1065.45 534.395 1059.32 545.975 1053.91C590.289 1033.21 619.351 1038.02 619.351 1038.02L632.168 1062.3Z" fill="white" stroke="#F3B304" stroke-width="6" stroke-miterlimit="10"/>
<path d="M626.308 645.671C670.013 645.671 702.369 685.822 692.564 727.897L679.991 781.842" stroke="white" stroke-width="5" stroke-linecap="round" stroke-linejoin="round"/>
<path d="M838.077 1078.39V702.66C838.077 698.274 837.203 693.93 835.504 689.877C833.805 685.824 831.315 682.142 828.175 679.04C825.035 675.938 821.307 673.477 817.205 671.799C813.102 670.12 808.705 669.256 804.264 669.256V669.256C795.296 669.256 786.694 672.775 780.352 679.04C774.01 685.304 770.448 693.801 770.448 702.66" stroke="#F3B304" stroke-width="6" stroke-miterlimit="10"/>
<path d="M784.304 1078.39C784.304 1069.97 787.692 1061.89 793.723 1055.93C799.754 1049.97 807.934 1046.63 816.463 1046.63H859.686C863.909 1046.63 868.092 1047.45 871.994 1049.04C875.896 1050.64 879.442 1052.98 882.429 1055.93C885.415 1058.88 887.784 1062.38 889.401 1066.24C891.017 1070.09 891.849 1074.22 891.849 1078.39V1078.39" stroke="#F3B304" stroke-width="6" stroke-miterlimit="10"/>
<path d="M897.433 1078.39H885.764L886.837 1075.52C887.118 1074.77 887.625 1074.12 888.29 1073.67C888.955 1073.21 889.746 1072.96 890.556 1072.96H892.641C893.451 1072.96 894.242 1073.21 894.907 1073.67C895.572 1074.12 896.079 1074.77 896.36 1075.52L897.433 1078.39Z" fill="#59221D"/>
<path d="M843.665 1078.39H831.996L833.069 1075.52C833.35 1074.77 833.857 1074.12 834.522 1073.67C835.187 1073.21 835.978 1072.96 836.788 1072.96H838.873C839.683 1072.96 840.474 1073.21 841.139 1073.67C841.804 1074.12 842.311 1074.77 842.592 1075.52L843.665 1078.39Z" fill="#59221D"/>
<path d="M790.366 1078.39H778.697L779.77 1075.52C780.051 1074.77 780.558 1074.12 781.223 1073.67C781.888 1073.21 782.679 1072.96 783.489 1072.96H785.578C786.389 1072.96 787.179 1073.21 787.844 1073.67C788.509 1074.12 789.016 1074.77 789.298 1075.52L790.366 1078.39Z" fill="#59221D"/>
<path d="M791.996 475.753C801.311 478.002 809.793 482.807 816.461 489.614C823.129 496.422 827.713 504.953 829.682 514.224L776.017 539.901L777.455 643.352H616.035L619.314 540.46L565.523 514.724C567.491 505.454 572.074 496.923 578.742 490.117C585.409 483.31 593.89 478.505 603.204 476.257L680.165 458.211H719.79L791.996 475.753Z" fill="#F5BBBB"/>
<path d="M699.699 504.104C701.825 504.104 703.549 502.401 703.549 500.3C703.549 498.2 701.825 496.497 699.699 496.497C697.572 496.497 695.848 498.2 695.848 500.3C695.848 502.401 697.572 504.104 699.699 504.104Z" stroke="white" stroke-width="5" stroke-linecap="round" stroke-linejoin="round"/>
<path d="M699.699 531.303C701.825 531.303 703.549 529.6 703.549 527.499C703.549 525.399 701.825 523.696 699.699 523.696C697.572 523.696 695.848 525.399 695.848 527.499C695.848 529.6 697.572 531.303 699.699 531.303Z" stroke="white" stroke-width="5" stroke-linecap="round" stroke-linejoin="round"/>
<path d="M699.699 558.502C701.825 558.502 703.549 556.799 703.549 554.699C703.549 552.598 701.825 550.895 699.699 550.895C697.572 550.895 695.848 552.598 695.848 554.699C695.848 556.799 697.572 558.502 699.699 558.502Z" stroke="white" stroke-width="5" stroke-linecap="round" stroke-linejoin="round"/>
<path d="M699.699 585.697C701.825 585.697 703.549 583.994 703.549 581.893C703.549 579.792 701.825 578.089 699.699 578.089C697.572 578.089 695.848 579.792 695.848 581.893C695.848 583.994 697.572 585.697 699.699 585.697Z" stroke="white" stroke-width="5" stroke-linecap="round" stroke-linejoin="round"/>
<path d="M661.591 462.833L671.878 494.016L691.529 478.205" stroke="white" stroke-width="5" stroke-linecap="round" stroke-linejoin="round"/>
<path d="M708.819 478.205L727.248 494.016L737.165 462.954" stroke="white" stroke-width="5" stroke-linecap="round" stroke-linejoin="round"/>
<path d="M620.19 530.979L568.661 506.593" stroke="white" stroke-width="5" stroke-linecap="round" stroke-linejoin="round"/>
<path d="M775.338 531.021L827.34 506.168" stroke="white" stroke-width="5" stroke-linecap="round" stroke-linejoin="round"/>
<path d="M576.409 668.178L806.574 668.122C810.251 668.119 813.912 667.653 817.47 666.734C822.556 665.888 827.422 664.059 831.791 661.351C836.159 658.643 839.943 655.11 842.926 650.954C845.909 646.798 848.032 642.101 849.174 637.133C850.315 632.165 850.452 627.023 849.577 622.002L829.682 514.187L776.017 539.863L776.697 586.96L629.587 608.514C624.779 609.412 620.125 610.979 615.763 613.169L571.228 654.352C565.972 657.785 565.082 668.201 576.409 668.178Z" fill="#A74602"/>
<path d="M792.68 584.683L766.878 588.237" stroke="#59221D" stroke-width="5" stroke-miterlimit="10" stroke-linecap="round"/>
<path d="M565.523 514.724L619.314 540.465L617.993 588.126L808.317 614.33C812.44 614.898 816.371 616.418 819.789 618.766C823.207 621.114 826.017 624.225 827.991 627.846L856.341 694.784H852.205C849.064 694.784 845.982 693.94 843.289 692.343C840.596 690.747 838.393 688.457 836.915 685.72L833.238 678.899L790.792 683.452C782.829 684.406 775.277 679.066 772.434 671.685L771.108 668.238H579.262C570.149 668.259 561.267 665.406 553.91 660.094C539.707 649.858 533.612 631.868 538.18 615.084L565.523 514.724Z" fill="#A74602"/>
<path d="M766.639 654.245L772.434 671.694C775.277 679.098 782.852 684.419 790.792 683.462L833.238 678.908L836.915 685.729C838.392 688.468 840.595 690.758 843.288 692.355C845.981 693.953 849.063 694.797 852.205 694.798H856.341L827.991 627.86C826.017 624.238 823.208 621.127 819.789 618.778C816.371 616.428 812.441 614.908 808.316 614.339L587.53 583.961" stroke="#59221D" stroke-width="5" stroke-miterlimit="10" stroke-linecap="round"/>
<path d="M833.364 679.177L820.06 651.464" stroke="#59221D" stroke-width="5" stroke-miterlimit="10" stroke-linecap="round"/>
<path d="M815.76 679.32L802.962 653.111" stroke="#59221D" stroke-width="5" stroke-miterlimit="10" stroke-linecap="round"/>
<path d="M799.079 681.379L786.281 655.17" stroke="#59221D" stroke-width="5" stroke-miterlimit="10" stroke-linecap="round"/>
<path d="M719.785 458.22L714.984 435.389H685.275L680.178 458.22C680.178 458.22 676.478 477.654 699.989 477.654C723.5 477.654 719.785 458.22 719.785 458.22Z" fill="#A74602"/>
<path d="M715.195 436.398C715.107 441.165 713.297 445.744 710.091 449.308C706.885 452.872 702.495 455.186 697.713 455.832L680.179 458.22L685.289 435.384H714.998L715.195 436.398Z" fill="#59221D"/>
<path d="M726.807 426.884V428.161C726.81 429.175 726.611 430.179 726.22 431.117C725.83 432.054 725.256 432.906 724.531 433.624C723.807 434.342 722.946 434.911 721.998 435.3C721.05 435.689 720.034 435.889 719.008 435.889H715.471C714.141 442.649 707.924 447.762 700.481 447.762H699.586C692.119 447.762 685.903 442.649 684.573 435.889H681.242C679.174 435.889 677.19 435.077 675.727 433.632C674.264 432.187 673.443 430.228 673.443 428.184V426.907C673.444 424.864 674.266 422.905 675.728 421.461C677.191 420.016 679.174 419.204 681.242 419.203C682.361 419.202 683.445 419.584 684.31 420.286V416.644C684.31 413.192 687.749 410.684 691.234 411.609C692.255 411.879 693.307 412.014 694.363 412.012C699.844 412.012 704.346 408.449 704.866 403.882H704.917C710.904 403.882 715.757 408.509 715.757 414.228V420.323C716.69 419.594 717.846 419.199 719.036 419.203C720.06 419.202 721.075 419.401 722.021 419.788C722.968 420.175 723.828 420.742 724.552 421.458C725.277 422.174 725.851 423.023 726.243 423.958C726.635 424.893 726.836 425.895 726.835 426.907L726.807 426.884Z" fill="#A74602"/>
<path d="M683.584 428.948C683.583 427.615 683.046 426.336 682.091 425.394C681.136 424.452 679.842 423.923 678.492 423.923" stroke="#59221D" stroke-width="5" stroke-miterlimit="10" stroke-linecap="round"/>
<path d="M715.954 428.948C715.955 427.615 716.492 426.336 717.447 425.394C718.402 424.452 719.696 423.923 721.046 423.923" stroke="#59221D" stroke-width="5" stroke-miterlimit="10" stroke-linecap="round"/>
<path d="M705.119 415.871C705.119 415.871 709.489 414.363 712.52 417.093" stroke="white" stroke-width="4" stroke-linecap="round" stroke-linejoin="round"/>
<path d="M707.381 424.455C708.178 424.455 708.824 423.379 708.824 422.053C708.824 420.727 708.178 419.652 707.381 419.652C706.584 419.652 705.938 420.727 705.938 422.053C705.938 423.379 706.584 424.455 707.381 424.455Z" fill="#59221D"/>
<path d="M692.012 424.455C692.808 424.455 693.454 423.379 693.454 422.053C693.454 420.727 692.808 419.652 692.012 419.652C691.215 419.652 690.569 420.727 690.569 422.053C690.569 423.379 691.215 424.455 692.012 424.455Z" fill="#59221D"/>
<path d="M702.261 428.434C700.765 429.098 699.067 429.161 697.525 428.61C697.525 428.61 698.49 419.18 695.651 416.334" stroke="#59221D" stroke-width="5" stroke-miterlimit="10" stroke-linecap="round"/>
<path d="M687.833 417.097C690.859 414.363 695.23 415.862 695.23 415.862" stroke="white" stroke-width="4" stroke-linecap="round" stroke-linejoin="round"/>
<path d="M696.162 434.885C697.52 435.579 699.057 435.857 700.575 435.681C702.094 435.505 703.525 434.885 704.683 433.899" stroke="#59221D" stroke-width="5" stroke-miterlimit="10" stroke-linecap="round"/>
<path d="M704.055 432.525L705.938 435.847" stroke="#59221D" stroke-width="5" stroke-miterlimit="10" stroke-linecap="round"/>
<path d="M376.628 1078.39H269.823C267.814 1078.39 265.831 1077.95 264.023 1077.08C262.214 1076.22 260.627 1074.96 259.378 1073.41C258.13 1071.85 257.254 1070.04 256.815 1068.1C256.376 1066.17 256.385 1064.16 256.842 1062.23L263.663 1033.49H333.569C337.419 1033.49 341.208 1034.45 344.582 1036.28C347.956 1038.11 350.806 1040.76 352.868 1043.97L353.454 1044.9C354.77 1046.95 356.588 1048.63 358.74 1049.8C360.893 1050.97 363.309 1051.58 365.765 1051.58H375.344C376.253 1052.87 377.19 1054.14 378.155 1055.39L384.245 1063.4C385.303 1064.79 385.946 1066.45 386.103 1068.19C386.26 1069.92 385.924 1071.67 385.133 1073.22C384.342 1074.78 383.127 1076.09 381.625 1077C380.122 1077.92 378.392 1078.4 376.628 1078.39V1078.39Z" stroke="#592D29" stroke-width="5" stroke-linecap="round" stroke-linejoin="round"/>
<path d="M376.628 1078.39H269.823C267.814 1078.39 265.831 1077.95 264.023 1077.08C262.214 1076.22 260.627 1074.96 259.378 1073.41C258.13 1071.85 257.254 1070.04 256.815 1068.1C256.376 1066.17 256.385 1064.16 256.842 1062.23L258.018 1057.26C258.164 1060.65 259.632 1063.86 262.115 1066.21C264.598 1068.56 267.905 1069.88 271.345 1069.88H378.15C379.613 1069.89 381.058 1069.56 382.368 1068.92C383.678 1068.27 384.817 1067.34 385.692 1066.18C386.142 1067.58 386.25 1069.08 386.007 1070.53C385.764 1071.99 385.178 1073.37 384.295 1074.56C383.412 1075.75 382.258 1076.71 380.926 1077.38C379.594 1078.05 378.121 1078.39 376.628 1078.39Z" fill="#A74602"/>
<path d="M376.628 1078.39H269.823C267.814 1078.39 265.831 1077.95 264.023 1077.08C262.214 1076.22 260.627 1074.96 259.378 1073.41C258.13 1071.85 257.254 1070.04 256.815 1068.1C256.376 1066.17 256.385 1064.16 256.842 1062.23L258.018 1057.26C258.164 1060.65 259.632 1063.86 262.115 1066.21C264.598 1068.56 267.905 1069.88 271.345 1069.88H378.15C379.613 1069.89 381.058 1069.56 382.368 1068.92C383.678 1068.27 384.817 1067.34 385.692 1066.18C386.142 1067.58 386.25 1069.08 386.007 1070.53C385.764 1071.99 385.178 1073.37 384.295 1074.56C383.412 1075.75 382.258 1076.71 380.926 1077.38C379.594 1078.05 378.121 1078.39 376.628 1078.39V1078.39Z" stroke="#592D29" stroke-width="5" stroke-linecap="round" stroke-linejoin="round"/>
<path d="M334.58 1033.49C342.408 1033.49 348.676 1037.44 352.85 1043.97L353.435 1044.9C354.751 1046.95 356.57 1048.63 358.722 1049.8C360.874 1050.97 363.29 1051.58 365.746 1051.58H375.326C367.971 1041.18 352.288 1019 350.667 997.5L334.74 1017.98L334.58 1033.49Z" fill="#7EBAD2"/>
<path d="M334.58 1033.49C342.408 1033.49 348.676 1037.44 352.85 1043.97L353.435 1044.9C354.751 1046.95 356.57 1048.63 358.722 1049.8C360.874 1050.97 363.29 1051.58 365.746 1051.58H375.326C367.971 1041.18 352.288 1019 350.667 997.5L334.74 1017.98L334.58 1033.49Z" stroke="#59221D" stroke-width="5" stroke-linecap="round" stroke-linejoin="round"/>
<path d="M334.744 1017.97H263.686V1033.49H334.744V1017.97Z" fill="white" stroke="#59221D" stroke-width="5" stroke-linecap="round" stroke-linejoin="round"/>
<path d="M275.229 1017.95V1033.49" stroke="#59221D" stroke-width="5" stroke-linecap="round" stroke-linejoin="round"/>
<path d="M287.024 1017.95V1033.49" stroke="#59221D" stroke-width="5" stroke-linecap="round" stroke-linejoin="round"/>
<path d="M298.815 1017.95V1033.49" stroke="#59221D" stroke-width="5" stroke-linecap="round" stroke-linejoin="round"/>
<path d="M310.61 1017.95V1033.49" stroke="#59221D" stroke-width="5" stroke-linecap="round" stroke-linejoin="round"/>
<path d="M322.406 1017.95V1033.49" stroke="#59221D" stroke-width="5" stroke-linecap="round" stroke-linejoin="round"/>
<path d="M116.127 1078.39H80.9375C76.7215 1078.39 70.8473 1078.39 66.3924 1074.51L5.49484 1027.36C-2.0424 1021.54 1.63956 1015.44 5.99608 1010.85L29.0669 986.242C29.0669 986.242 67.8539 1009.7 97.956 1008.36C106.505 1007.98 114.352 1006.02 119.753 996.047C112.515 1009.59 115.246 1045.27 125.224 1063.14C126.096 1064.71 126.54 1066.47 126.513 1068.25C126.486 1070.04 125.99 1071.79 125.072 1073.33C124.154 1074.87 122.847 1076.14 121.279 1077.03C119.71 1077.92 117.935 1078.39 116.127 1078.39Z" fill="white" stroke="#59221D" stroke-width="5" stroke-linecap="round" stroke-linejoin="round"/>
<path d="M116.127 1078.39H80.9375C76.7215 1078.39 70.852 1078.39 66.3924 1074.51L5.49484 1027.36C-1.58801 1021.89 1.23202 1016.18 5.21378 1011.7C5.26531 1014.05 6.47389 1016.47 9.55156 1018.85L70.4491 1065.99C74.9087 1069.88 80.797 1069.88 84.9989 1069.88H120.184C122.486 1069.89 124.727 1069.14 126.545 1067.75C126.593 1069.13 126.359 1070.5 125.857 1071.79C125.355 1073.08 124.595 1074.26 123.623 1075.25C122.651 1076.25 121.486 1077.04 120.198 1077.58C118.91 1078.12 117.526 1078.39 116.127 1078.39Z" fill="#A74602"/>
<path d="M116.127 1078.39H80.9375C76.7215 1078.39 70.852 1078.39 66.3924 1074.51L5.49484 1027.36C-1.58801 1021.89 1.23202 1016.18 5.21378 1011.7C5.26531 1014.05 6.47389 1016.47 9.55156 1018.85L70.4491 1065.99C74.9087 1069.88 80.797 1069.88 84.9989 1069.88H120.184C122.486 1069.89 124.727 1069.14 126.545 1067.75C126.593 1069.13 126.359 1070.5 125.857 1071.79C125.355 1073.08 124.595 1074.26 123.623 1075.25C122.651 1076.25 121.486 1077.04 120.198 1077.58C118.91 1078.12 117.526 1078.39 116.127 1078.39V1078.39Z" stroke="#59221D" stroke-width="5" stroke-linecap="round" stroke-linejoin="round"/>
<path d="M98.007 1008.38L36.838 972.66L28.8426 986.02L90.0115 1021.74L98.007 1008.38Z" fill="white" stroke="#59221D" stroke-width="5" stroke-linecap="round" stroke-linejoin="round"/>
<path d="M46.7553 978.431L38.7543 991.804" stroke="#59221D" stroke-width="5" stroke-linecap="round" stroke-linejoin="round"/>
<path d="M56.9064 984.364L48.9054 997.732" stroke="#59221D" stroke-width="5" stroke-linecap="round" stroke-linejoin="round"/>
<path d="M67.0576 990.291L59.0566 1003.66" stroke="#59221D" stroke-width="5" stroke-linecap="round" stroke-linejoin="round"/>
<path d="M77.2134 996.218L69.2077 1009.59" stroke="#59221D" stroke-width="5" stroke-linecap="round" stroke-linejoin="round"/>
<path d="M87.3646 1002.15L79.3589 1015.52" stroke="#59221D" stroke-width="5" stroke-linecap="round" stroke-linejoin="round"/>
<path d="M118.048 1042.01H110.412C108.697 1042.01 107.036 1041.41 105.718 1040.33C104.401 1039.24 103.511 1037.74 103.203 1036.07L102.861 1034.22C102.518 1032.36 101.765 1030.6 100.656 1029.06C99.5468 1027.52 98.1085 1026.24 96.443 1025.31L89.9785 1021.7L97.9795 1008.34C106.524 1007.96 114.375 1006.01 119.776 996.029C114.834 1005.29 114.534 1024.84 118.048 1042.01Z" fill="#7EBAD2"/>
<path d="M118.048 1042.01H110.412C108.697 1042.01 107.036 1041.41 105.718 1040.33C104.401 1039.24 103.511 1037.74 103.203 1036.07L102.861 1034.22C102.518 1032.36 101.765 1030.6 100.656 1029.06C99.5468 1027.52 98.1085 1026.24 96.443 1025.31L89.9785 1021.7L97.9795 1008.34C106.524 1007.96 114.375 1006.01 119.776 996.029C114.834 1005.29 114.534 1024.84 118.048 1042.01Z" stroke="#59221D" stroke-width="5" stroke-linecap="round" stroke-linejoin="round"/>
<path d="M506.691 96.15L520.444 64.1293C522.414 59.5419 525.707 55.6287 529.913 52.8778C534.119 50.127 539.052 48.6602 544.096 48.6603H588.893C592.308 48.661 595.618 49.8172 598.275 51.9365C600.931 54.0558 602.771 57.0101 603.49 60.3072L605.261 68.4836H594.486C592.974 68.4853 591.497 68.9339 590.244 69.7717C588.992 70.6095 588.022 71.7982 587.46 73.1849L578.953 94.1279C576.441 100.313 572.111 105.613 566.523 109.347C560.934 113.08 554.342 115.075 547.595 115.076H519.39C517.113 115.078 514.871 114.524 512.864 113.461C510.857 112.398 509.148 110.86 507.89 108.985C506.631 107.111 505.863 104.957 505.654 102.717C505.445 100.477 505.801 98.2207 506.691 96.15Z" fill="white" stroke="#59221D" stroke-width="5" stroke-linecap="round" stroke-linejoin="round"/>
<path d="M537.73 64.1293C539.701 59.5419 542.995 55.6289 547.201 52.8781C551.408 50.1273 556.341 48.6605 561.386 48.6603" stroke="#59221D" stroke-width="5" stroke-linecap="round" stroke-linejoin="round"/>
<path d="M555.02 64.1293C556.99 59.5415 560.284 55.6282 564.491 52.8773C568.698 50.1265 573.632 48.6599 578.677 48.6603" stroke="#59221D" stroke-width="5" stroke-linecap="round" stroke-linejoin="round"/>
<path d="M572.31 64.1293C574.013 60.164 576.71 56.692 580.146 54.0401C583.582 51.3881 587.645 49.6435 591.952 48.9704" stroke="#59221D" stroke-width="5" stroke-linecap="round" stroke-linejoin="round"/>
<path d="M225.831 214.719L234.427 193.188L272.413 193.087V214.719H225.831Z" fill="white" stroke="#59221D" stroke-width="5" stroke-linecap="round" stroke-linejoin="round"/>
<path d="M246.963 196.909C258.332 207.089 278.513 198.69 278.513 198.69C278.208 194.877 277.796 193.748 277.37 188.487C277.224 186.669 282.49 186.174 282.344 184.374C281.609 175.249 275.524 161.7 275.454 160.876C266.469 173.689 245.829 170.746 245.829 170.746L246.963 196.909Z" fill="white" stroke="#59221D" stroke-width="5" stroke-linecap="round" stroke-linejoin="round"/>
<path d="M264.872 174.869C264.872 174.869 266.937 171.519 272.727 170.927" stroke="#59221D" stroke-width="5" stroke-linecap="round" stroke-linejoin="round"/>
<path d="M270.352 181.287C271.165 181.287 271.823 180.104 271.823 178.645C271.823 177.186 271.165 176.003 270.352 176.003C269.54 176.003 268.881 177.186 268.881 178.645C268.881 180.104 269.54 181.287 270.352 181.287Z" fill="#59221D"/>
<path d="M279.866 199.653C279.941 200.298 279.884 200.951 279.699 201.573C279.513 202.196 279.203 202.775 278.786 203.277C278.369 203.778 277.854 204.192 277.272 204.493C276.69 204.794 276.052 204.977 275.397 205.03C267.71 205.636 250.209 205.955 246.134 197.501C245.9 197.038 245.693 196.987 245.506 196.478C238.479 196.502 232.54 198.218 229.204 187.779C227.106 181.208 226.028 170.112 227.738 166.596C229.71 162.533 276.255 140.618 279.047 142.196C281.839 143.774 282.794 154.435 276.372 162.214C270.352 169.483 259.667 172.486 249.085 172.167C250.856 177.72 254.781 186.729 262.796 187.765C274.507 189.269 278.255 185.813 278.255 185.813L279.866 199.653Z" fill="#59221D"/>
<path d="M248.443 185.225L248.396 197.057H240.728C238.398 197.057 236.164 196.143 234.517 194.516C232.87 192.889 231.945 190.682 231.945 188.381C231.945 186.08 232.87 183.873 234.517 182.246C236.164 180.619 238.398 179.705 240.728 179.705H242.883C243.615 179.705 244.34 179.849 245.016 180.127C245.693 180.405 246.307 180.812 246.823 181.325C247.34 181.837 247.749 182.446 248.027 183.115C248.305 183.785 248.446 184.501 248.443 185.225Z" fill="white" stroke="#59221D" stroke-width="5" stroke-linecap="round" stroke-linejoin="round"/>
<path d="M239.266 184.48C240.55 184.48 241.782 184.982 242.691 185.877C243.601 186.773 244.115 187.987 244.12 189.255" stroke="#59221D" stroke-width="5" stroke-linecap="round" stroke-linejoin="round"/>
<path d="M133.239 501.832L132.251 572.324C132.091 576.251 131.149 580.108 129.478 583.675C127.807 587.241 125.44 590.447 122.513 593.109C119.586 595.771 116.156 597.837 112.419 599.187C108.683 600.538 104.714 601.147 100.739 600.98L69.1468 599.754C64.8577 599.573 60.6566 598.492 56.823 596.584C52.9893 594.675 49.6109 591.982 46.9123 588.684C44.2138 585.386 42.2569 581.558 41.1717 577.455C40.0866 573.352 39.898 569.068 40.6187 564.888L87.3973 293.549C90.4345 275.451 99.8771 259.005 114.043 247.141C128.209 235.277 146.179 228.766 164.751 228.768H426.409C432.781 228.768 438.995 226.807 444.188 223.158C449.38 219.51 453.293 214.354 455.382 208.408L484.997 124.08C487.241 117.689 491.445 112.147 497.024 108.224C502.604 104.302 509.282 102.194 516.13 102.193H555.179C559.033 102.191 562.835 103.075 566.283 104.776C569.731 106.476 572.73 108.946 575.045 111.99C577.359 115.034 578.924 118.568 579.616 122.313C580.309 126.058 580.109 129.911 579.032 133.566L536.161 279.464C531.975 293.709 523.221 306.227 511.214 315.135C499.207 324.043 484.597 328.859 469.581 328.86H381.233C377.288 328.859 373.383 329.626 369.738 331.117C366.094 332.607 362.783 334.792 359.994 337.547C357.205 340.302 354.992 343.572 353.483 347.172C351.973 350.771 351.196 354.629 351.196 358.525V502.679L133.239 501.832Z" fill="#FFC200"/>
<path d="M535.617 281.204C531.141 295.034 522.33 307.101 510.458 315.662C498.586 324.223 484.266 328.835 469.567 328.832H462.845C461.676 324.887 461.082 320.797 461.083 316.686C461.083 292.161 481.92 272.264 507.614 272.264C517.672 272.232 527.48 275.363 535.617 281.204Z" fill="#A74602"/>
<path d="M114.792 424.658C114.792 449.419 96.2462 469.492 73.3581 469.492C67.9379 469.496 62.5795 468.355 57.6419 466.146L72.5243 379.834H73.3581C96.2462 379.825 114.792 399.898 114.792 424.658Z" fill="#A74602"/>
<path d="M119.13 588.752C119.63 579.217 104.007 570.666 84.2347 569.653C64.4619 568.64 48.0269 575.548 47.5261 585.082C47.0253 594.617 62.6484 603.168 82.4211 604.181C102.194 605.195 118.629 598.287 119.13 588.752Z" fill="#59221D"/>
<path d="M213.994 228.749L224.946 213.317H273.833C273.833 213.317 288.823 228.772 287.141 228.772L213.994 228.749Z" fill="#A74602"/>
<path d="M111.583 613.627L107.639 633.76C107.211 635.972 106.015 637.968 104.258 639.404C102.501 640.84 100.293 641.626 98.0122 641.626H90.6296L87.1303 653.07C86.1651 656.219 84.1997 658.978 81.5247 660.938C78.8497 662.899 75.607 663.958 72.276 663.958H24.8275C23.422 663.956 22.0307 663.68 20.733 663.147C19.4353 662.614 18.2567 661.834 17.2644 660.851C16.2722 659.867 15.4857 658.701 14.95 657.417C14.4143 656.134 14.1398 654.759 14.1423 653.37C14.1435 651.248 14.9977 649.212 16.5173 647.711C18.0368 646.21 20.0974 645.366 22.2463 645.365H26.8886L43.879 599.555C45.755 594.498 49.1728 590.14 53.6614 587.082C58.15 584.024 63.4884 582.416 68.9407 582.481L86.0389 582.652C89.8963 582.698 93.6965 583.58 97.1708 585.237C100.645 586.893 103.709 589.283 106.145 592.238C108.582 595.192 110.332 598.639 111.271 602.335C112.211 606.031 112.317 609.886 111.583 613.627Z" fill="white" stroke="#59221D" stroke-width="5" stroke-linecap="round" stroke-linejoin="round"/>
<path d="M41.1714 663.957C39.7648 663.958 38.372 663.684 37.0727 663.151C35.7734 662.619 34.5931 661.839 33.5993 660.855C32.6056 659.872 31.8178 658.705 31.2813 657.42C30.7447 656.136 30.4698 654.76 30.4722 653.37V653.37C30.4722 651.247 31.326 649.211 32.8458 647.71C34.3656 646.209 36.4269 645.365 38.5763 645.365H43.2185L49.8704 627.421" stroke="#59221D" stroke-width="5" stroke-linecap="round" stroke-linejoin="round"/>
<path d="M57.4967 663.957C56.0904 663.957 54.6981 663.682 53.3993 663.15C52.1006 662.617 50.9208 661.837 49.9276 660.854C48.9343 659.871 48.147 658.703 47.6107 657.419C47.0744 656.135 46.7996 654.759 46.8021 653.37V653.37C46.8021 651.247 47.6559 649.211 49.1757 647.71C50.6955 646.209 52.7568 645.365 54.9062 645.365H59.5484L66.2003 627.421" stroke="#59221D" stroke-width="5" stroke-linecap="round" stroke-linejoin="round"/>
<path d="M72.3884 663.958C70.9818 663.958 69.589 663.684 68.2897 663.151C66.9904 662.619 65.8101 661.839 64.8163 660.855C63.8226 659.872 63.0349 658.705 62.4983 657.421C61.9617 656.136 61.6868 654.76 61.6892 653.37V653.37C61.6892 651.247 62.543 649.211 64.0628 647.71C65.5827 646.209 67.644 645.365 69.7933 645.365H74.4355L79.3261 632.182" stroke="#59221D" stroke-width="5" stroke-linecap="round" stroke-linejoin="round"/>
<path d="M98.6915 641.608H77.4148V639.655C77.4148 635.491 80.2255 631.368 84.2494 630.206L89.2055 628.698C89.2055 628.698 79.3261 624.343 81.242 606.718" stroke="#59221D" stroke-width="5" stroke-linecap="round" stroke-linejoin="round"/>
<path d="M350.69 504.261V939.493L350.517 939.192V997.69C350.516 1003.06 348.354 1008.22 344.507 1012.02C340.661 1015.82 335.444 1017.95 330.004 1017.95H259.948C254.854 1017.95 249.969 1015.95 246.367 1012.4C242.766 1008.84 240.742 1004.01 240.742 998.981V708.953C240.742 708.953 229.729 838.332 119.781 996.047C115.204 1003.48 109.171 1007.04 102.448 1007.97C100.883 1008.18 99.3014 1008.26 97.7218 1008.21L36.8149 972.652L34.2338 970.38C29.8983 966.985 26.9116 962.191 25.798 956.838C24.6844 951.485 25.515 945.916 28.144 941.108C62.4528 878.413 144.894 694.474 133.192 503.451L350.69 504.261Z" fill="white" stroke="#59221D" stroke-width="5" stroke-linecap="round" stroke-linejoin="round"/>
<path d="M240.737 713.585V590.254L220.388 589.917" stroke="#59221D" stroke-width="5" stroke-linecap="round" stroke-linejoin="round"/>
<path d="M304.08 669.103H350.639V684.285H299.686V673.453C299.685 672.882 299.798 672.316 300.018 671.789C300.238 671.261 300.562 670.782 300.97 670.378C301.378 669.974 301.863 669.653 302.396 669.434C302.93 669.216 303.502 669.103 304.08 669.103Z" fill="white" stroke="#59221D" stroke-width="5" stroke-linecap="round" stroke-linejoin="round"/>
<path d="M304.118 684.294H350.69V730.299H311.247C310.31 730.299 309.382 730.116 308.516 729.761C307.65 729.406 306.863 728.886 306.201 728.231C305.539 727.576 305.014 726.797 304.656 725.941C304.299 725.085 304.116 724.168 304.118 723.242V684.285V684.294Z" fill="white" stroke="#59221D" stroke-width="5" stroke-linecap="round" stroke-linejoin="round"/>
<path d="M354.925 228.749H319.792C313.579 228.749 307.587 231.022 302.972 235.13C298.357 239.238 295.445 244.889 294.8 250.992L289.498 493.221C288.329 504.254 283.066 514.47 274.722 521.896C266.379 529.322 255.547 533.434 244.316 533.436H165.599C159.912 533.436 154.292 532.227 149.12 529.89C143.948 527.553 139.346 524.144 135.627 519.894C131.908 515.644 129.159 510.653 127.567 505.26C125.975 499.867 125.577 494.198 126.4 488.64L161.388 251.515C162.324 245.182 165.538 239.394 170.442 235.21C175.345 231.026 181.61 228.726 188.089 228.731H212.673C206.466 228.729 200.478 230.997 195.864 235.099C191.25 239.2 188.337 244.844 187.686 250.941L187.063 256.832C186.776 259.537 187.067 262.271 187.918 264.858C188.769 267.445 190.161 269.826 192.004 271.847C193.847 273.868 196.099 275.483 198.615 276.589C201.13 277.695 203.853 278.266 206.607 278.265H244.41C248.907 278.258 253.266 276.729 256.761 273.933C260.255 271.137 262.675 267.242 263.616 262.898L266.427 249.799C267.712 243.832 271.032 238.483 275.832 234.644C280.632 230.806 286.62 228.712 292.795 228.712L354.925 228.749Z" fill="#7EBAD2"/>
<path d="M125.355 488.64C124.536 494.197 124.937 499.864 126.531 505.254C128.125 510.645 130.875 515.634 134.594 519.882C138.313 524.129 142.914 527.537 148.085 529.872C153.255 532.208 158.874 533.417 164.559 533.418H244.808C256.032 533.41 266.856 529.299 275.194 521.877C283.532 514.455 288.794 504.247 289.966 493.221L295.259 250.992C295.903 244.889 298.814 239.238 303.428 235.13C308.043 231.022 314.034 228.749 320.246 228.749" stroke="#59221D" stroke-width="5" stroke-linecap="round" stroke-linejoin="round"/>
<path d="M125.678 488.64C126.764 498.208 131.38 507.046 138.646 513.465C145.912 519.883 155.318 523.432 165.065 523.432H218.936C230.165 523.428 240.996 519.317 249.338 511.892C257.68 504.467 262.943 494.253 264.113 483.221L289.694 251.011C291.029 238.369 302.145 228.226 319.365 228.768" stroke="#59221D" stroke-width="5" stroke-linecap="round" stroke-linejoin="round"/>
<path d="M213.174 228.749C200.311 228.749 188.122 238.341 186.782 250.96L186.154 256.85C185.871 259.555 186.166 262.287 187.019 264.872C187.871 267.457 189.264 269.836 191.106 271.856C192.948 273.876 195.198 275.492 197.711 276.599C200.225 277.706 202.946 278.28 205.698 278.284" stroke="#59221D" stroke-width="5" stroke-linecap="round" stroke-linejoin="round"/>
<path d="M170.658 424.191C169.145 424.192 167.684 424.742 166.555 425.738C165.426 426.734 164.707 428.105 164.536 429.591L160.1 468.358C159.959 469.534 160.073 470.725 160.433 471.854C160.792 472.982 161.39 474.023 162.187 474.907C162.984 475.79 163.961 476.497 165.055 476.98C166.149 477.464 167.334 477.712 168.532 477.71H224.599C227.551 477.71 230.397 476.622 232.579 474.659C234.762 472.695 236.124 469.998 236.4 467.095L240.058 428.485C240.11 427.94 240.045 427.39 239.869 426.87C239.693 426.351 239.41 425.873 239.036 425.468C238.663 425.063 238.208 424.739 237.701 424.518C237.193 424.296 236.645 424.182 236.09 424.182L170.658 424.191Z" fill="white"/>
<path d="M228.989 430.123H154.769L156.174 422.622C156.353 421.656 156.869 420.783 157.632 420.154C158.396 419.525 159.358 419.18 160.353 419.18H230.005L228.989 430.123Z" stroke="#59221D" stroke-width="5" stroke-linecap="round" stroke-linejoin="round"/>
<path d="M158.985 430.123L155.026 463.347C154.887 464.522 155.001 465.713 155.361 466.842C155.721 467.97 156.319 469.01 157.116 469.894C157.912 470.777 158.89 471.484 159.983 471.968C161.076 472.451 162.261 472.7 163.458 472.699H219.526C222.478 472.7 225.325 471.612 227.507 469.649C229.69 467.685 231.052 464.987 231.326 462.084L234.985 423.483C235.036 422.938 234.972 422.388 234.796 421.868C234.62 421.348 234.336 420.871 233.963 420.466C233.589 420.061 233.135 419.737 232.627 419.516C232.12 419.294 231.572 419.18 231.017 419.18" stroke="#59221D" stroke-width="5" stroke-linecap="round" stroke-linejoin="round"/>
<path d="M180.065 299.995H255.943" stroke="#59221D" stroke-width="5" stroke-linecap="round" stroke-linejoin="round"/>
</g>
<defs>
<clipPath id="clip0_160_2">
<rect width="1893" height="1080" fill="white"/>
</clipPath>
</defs>
</svg>
